<svg xmlns="http://www.w3.org/2000/svg" width="1120" height="700" viewBox="0 0 1120 700">
<rect width="100%" height="100%" fill="white"/>
<text x="560" y="30" text-anchor="middle" font-family="Arial" font-size="22" font-weight="bold">rzz-hea: SAD speedup vs PennyLane</text>
<line x1="90" y1="610.0" x2="1085" y2="610.0" stroke="#d9dee5"/>
<text x="78" y="615.0" text-anchor="end" font-family="Arial" font-size="12">0x</text>
<line x1="90" y1="504.3" x2="1085" y2="504.3" stroke="#d9dee5"/>
<text x="78" y="509.3" text-anchor="end" font-family="Arial" font-size="12">22x</text>
<line x1="90" y1="398.7" x2="1085" y2="398.7" stroke="#d9dee5"/>
<text x="78" y="403.7" text-anchor="end" font-family="Arial" font-size="12">44x</text>
<line x1="90" y1="293.0" x2="1085" y2="293.0" stroke="#d9dee5"/>
<text x="78" y="298.0" text-anchor="end" font-family="Arial" font-size="12">66x</text>
<line x1="90" y1="187.3" x2="1085" y2="187.3" stroke="#d9dee5"/>
<text x="78" y="192.3" text-anchor="end" font-family="Arial" font-size="12">88x</text>
<line x1="90" y1="81.6" x2="1085" y2="81.6" stroke="#d9dee5"/>
<text x="78" y="86.6" text-anchor="end" font-family="Arial" font-size="12">110x</text>
<line x1="90" y1="72.0" x2="1085" y2="72.0" stroke="#d9dee5"/>
<text x="78" y="77.0" text-anchor="end" font-family="Arial" font-size="12">112x</text>
<line x1="90" y1="70" x2="90" y2="610" stroke="#222"/>
<line x1="90" y1="610" x2="1085" y2="610" stroke="#222"/>
<text x="560" y="675" text-anchor="middle" font-family="Arial" font-size="14">qubits</text>
<text x="20" y="350" transform="rotate(-90 20 350)" text-anchor="middle" font-family="Arial" font-size="14">PennyLane time / SAD time (linear scale)</text>
<line x1="90.0" y1="610" x2="90.0" y2="616" stroke="#222"/>
<text x="90.0" y="634" text-anchor="middle" font-family="Arial" font-size="12">4</text>
<line x1="172.9" y1="610" x2="172.9" y2="616" stroke="#222"/>
<text x="172.9" y="634" text-anchor="middle" font-family="Arial" font-size="12">6</text>
<line x1="255.8" y1="610" x2="255.8" y2="616" stroke="#222"/>
<text x="255.8" y="634" text-anchor="middle" font-family="Arial" font-size="12">8</text>
<line x1="338.8" y1="610" x2="338.8" y2="616" stroke="#222"/>
<text x="338.8" y="634" text-anchor="middle" font-family="Arial" font-size="12">10</text>
<line x1="421.7" y1="610" x2="421.7" y2="616" stroke="#222"/>
<text x="421.7" y="634" text-anchor="middle" font-family="Arial" font-size="12">12</text>
<line x1="504.6" y1="610" x2="504.6" y2="616" stroke="#222"/>
<text x="504.6" y="634" text-anchor="middle" font-family="Arial" font-size="12">14</text>
<line x1="587.5" y1="610" x2="587.5" y2="616" stroke="#222"/>
<text x="587.5" y="634" text-anchor="middle" font-family="Arial" font-size="12">16</text>
<line x1="670.4" y1="610" x2="670.4" y2="616" stroke="#222"/>
<text x="670.4" y="634" text-anchor="middle" font-family="Arial" font-size="12">18</text>
<line x1="753.3" y1="610" x2="753.3" y2="616" stroke="#222"/>
<text x="753.3" y="634" text-anchor="middle" font-family="Arial" font-size="12">20</text>
<line x1="836.2" y1="610" x2="836.2" y2="616" stroke="#222"/>
<text x="836.2" y="634" text-anchor="middle" font-family="Arial" font-size="12">22</text>
<line x1="919.2" y1="610" x2="919.2" y2="616" stroke="#222"/>
<text x="919.2" y="634" text-anchor="middle" font-family="Arial" font-size="12">24</text>
<line x1="1002.1" y1="610" x2="1002.1" y2="616" stroke="#222"/>
<text x="1002.1" y="634" text-anchor="middle" font-family="Arial" font-size="12">26</text>
<line x1="1085.0" y1="610" x2="1085.0" y2="616" stroke="#222"/>
<text x="1085.0" y="634" text-anchor="middle" font-family="Arial" font-size="12">28</text>
<polyline points="90.0,119.1 172.9,272.6 255.8,305.5 338.8,322.7 421.7,310.9 504.6,291.6 587.5,411.8 670.4,504.9 753.3,554.4 836.2,540.6 919.2,515.6 1002.1,519.2 1085.0,518.3" fill="none" stroke="#176b87" stroke-width="3"/>
<circle cx="90.0" cy="119.1" r="4" fill="#176b87"/>
<circle cx="172.9" cy="272.6" r="4" fill="#176b87"/>
<circle cx="255.8" cy="305.5" r="4" fill="#176b87"/>
<circle cx="338.8" cy="322.7" r="4" fill="#176b87"/>
<circle cx="421.7" cy="310.9" r="4" fill="#176b87"/>
<circle cx="504.6" cy="291.6" r="4" fill="#176b87"/>
<circle cx="587.5" cy="411.8" r="4" fill="#176b87"/>
<circle cx="670.4" cy="504.9" r="4" fill="#176b87"/>
<circle cx="753.3" cy="554.4" r="4" fill="#176b87"/>
<circle cx="836.2" cy="540.6" r="4" fill="#176b87"/>
<circle cx="919.2" cy="515.6" r="4" fill="#176b87"/>
<circle cx="1002.1" cy="519.2" r="4" fill="#176b87"/>
<circle cx="1085.0" cy="518.3" r="4" fill="#176b87"/>
<polyline points="90.0,302.2 172.9,417.1 255.8,436.5 338.8,451.9 421.7,459.3 504.6,448.5 587.5,494.9 670.4,533.4 753.3,564.9 836.2,569.4 919.2,561.0 1002.1,561.9 1085.0,560.5" fill="none" stroke="#c44a35" stroke-width="3"/>
<circle cx="90.0" cy="302.2" r="4" fill="#c44a35"/>
<circle cx="172.9" cy="417.1" r="4" fill="#c44a35"/>
<circle cx="255.8" cy="436.5" r="4" fill="#c44a35"/>
<circle cx="338.8" cy="451.9" r="4" fill="#c44a35"/>
<circle cx="421.7" cy="459.3" r="4" fill="#c44a35"/>
<circle cx="504.6" cy="448.5" r="4" fill="#c44a35"/>
<circle cx="587.5" cy="494.9" r="4" fill="#c44a35"/>
<circle cx="670.4" cy="533.4" r="4" fill="#c44a35"/>
<circle cx="753.3" cy="564.9" r="4" fill="#c44a35"/>
<circle cx="836.2" cy="569.4" r="4" fill="#c44a35"/>
<circle cx="919.2" cy="561.0" r="4" fill="#c44a35"/>
<circle cx="1002.1" cy="561.9" r="4" fill="#c44a35"/>
<circle cx="1085.0" cy="560.5" r="4" fill="#c44a35"/>
<polyline points="90.0,297.4 172.9,423.3 255.8,434.4 338.8,448.7 421.7,453.9 504.6,442.6 587.5,496.8 670.4,532.3 753.3,564.3 836.2,567.0 919.2,560.5 1002.1,560.1 1085.0,559.1" fill="none" stroke="#5b7f36" stroke-width="3"/>
<circle cx="90.0" cy="297.4" r="4" fill="#5b7f36"/>
<circle cx="172.9" cy="423.3" r="4" fill="#5b7f36"/>
<circle cx="255.8" cy="434.4" r="4" fill="#5b7f36"/>
<circle cx="338.8" cy="448.7" r="4" fill="#5b7f36"/>
<circle cx="421.7" cy="453.9" r="4" fill="#5b7f36"/>
<circle cx="504.6" cy="442.6" r="4" fill="#5b7f36"/>
<circle cx="587.5" cy="496.8" r="4" fill="#5b7f36"/>
<circle cx="670.4" cy="532.3" r="4" fill="#5b7f36"/>
<circle cx="753.3" cy="564.3" r="4" fill="#5b7f36"/>
<circle cx="836.2" cy="567.0" r="4" fill="#5b7f36"/>
<circle cx="919.2" cy="560.5" r="4" fill="#5b7f36"/>
<circle cx="1002.1" cy="560.1" r="4" fill="#5b7f36"/>
<circle cx="1085.0" cy="559.1" r="4" fill="#5b7f36"/>
<polyline points="90.0,395.5 172.9,472.9 255.8,491.1 338.8,504.5 421.7,514.7 504.6,511.8 587.5,536.3 670.4,553.1 753.3,574.1 836.2,584.0 919.2,579.3 1002.1,579.8 1085.0,578.6" fill="none" stroke="#7a4eab" stroke-width="3"/>
<circle cx="90.0" cy="395.5" r="4" fill="#7a4eab"/>
<circle cx="172.9" cy="472.9" r="4" fill="#7a4eab"/>
<circle cx="255.8" cy="491.1" r="4" fill="#7a4eab"/>
<circle cx="338.8" cy="504.5" r="4" fill="#7a4eab"/>
<circle cx="421.7" cy="514.7" r="4" fill="#7a4eab"/>
<circle cx="504.6" cy="511.8" r="4" fill="#7a4eab"/>
<circle cx="587.5" cy="536.3" r="4" fill="#7a4eab"/>
<circle cx="670.4" cy="553.1" r="4" fill="#7a4eab"/>
<circle cx="753.3" cy="574.1" r="4" fill="#7a4eab"/>
<circle cx="836.2" cy="584.0" r="4" fill="#7a4eab"/>
<circle cx="919.2" cy="579.3" r="4" fill="#7a4eab"/>
<circle cx="1002.1" cy="579.8" r="4" fill="#7a4eab"/>
<circle cx="1085.0" cy="578.6" r="4" fill="#7a4eab"/>
<line x1="110" y1="90" x2="138" y2="90" stroke="#176b87" stroke-width="3"/>
<text x="146" y="95" font-family="Arial" font-size="13">SAD best</text>
<line x1="300" y1="90" x2="328" y2="90" stroke="#c44a35" stroke-width="3"/>
<text x="336" y="95" font-family="Arial" font-size="13">SAD average</text>
<line x1="490" y1="90" x2="518" y2="90" stroke="#5b7f36" stroke-width="3"/>
<text x="526" y="95" font-family="Arial" font-size="13">SAD median</text>
<line x1="680" y1="90" x2="708" y2="90" stroke="#7a4eab" stroke-width="3"/>
<text x="716" y="95" font-family="Arial" font-size="13">SAD worst</text>
</svg>