<svg xmlns="http://www.w3.org/2000/svg" width="960" height="600" viewBox="0 0 960 600">
<rect width="100%" height="100%" fill="#ffffff"/>
<style>text{font-family:Arial,Helvetica,sans-serif;fill:#252525;letter-spacing:0}.tick{font-size:14px;fill:#555}.label{font-size:17px;font-weight:600}.title{font-size:23px;font-weight:700}.subtitle{font-size:14px;fill:#666}.value{font-size:13px;font-weight:600}.legend{font-size:14px}</style>
<text class="title" x="92" y="32">Non-shared-angle QAOA: SAD Speedup Comparison</text>
<text class="subtitle" x="92" y="54">Baseline time / SAD time (higher is better)</text>
<line x1="92" y1="522.0" x2="922" y2="522.0" stroke="#dedede" stroke-width="1"/>
<text class="tick" x="80" y="527.0" text-anchor="end">0x</text>
<line x1="92" y1="431.6" x2="922" y2="431.6" stroke="#dedede" stroke-width="1"/>
<text class="tick" x="80" y="436.6" text-anchor="end">12x</text>
<line x1="92" y1="341.2" x2="922" y2="341.2" stroke="#dedede" stroke-width="1"/>
<text class="tick" x="80" y="346.2" text-anchor="end">24x</text>
<line x1="92" y1="250.8" x2="922" y2="250.8" stroke="#dedede" stroke-width="1"/>
<text class="tick" x="80" y="255.8" text-anchor="end">37x</text>
<line x1="92" y1="160.4" x2="922" y2="160.4" stroke="#dedede" stroke-width="1"/>
<text class="tick" x="80" y="165.4" text-anchor="end">49x</text>
<line x1="92" y1="70.0" x2="922" y2="70.0" stroke="#dedede" stroke-width="1"/>
<text class="tick" x="80" y="75.0" text-anchor="end">61x</text>
<line x1="92.0" y1="522" x2="92.0" y2="528" stroke="#777"/>
<text class="tick" x="92.0" y="548" text-anchor="middle">4</text>
<line x1="161.2" y1="522" x2="161.2" y2="528" stroke="#777"/>
<text class="tick" x="161.2" y="548" text-anchor="middle">6</text>
<line x1="230.3" y1="522" x2="230.3" y2="528" stroke="#777"/>
<text class="tick" x="230.3" y="548" text-anchor="middle">8</text>
<line x1="299.5" y1="522" x2="299.5" y2="528" stroke="#777"/>
<text class="tick" x="299.5" y="548" text-anchor="middle">10</text>
<line x1="368.7" y1="522" x2="368.7" y2="528" stroke="#777"/>
<text class="tick" x="368.7" y="548" text-anchor="middle">12</text>
<line x1="437.8" y1="522" x2="437.8" y2="528" stroke="#777"/>
<text class="tick" x="437.8" y="548" text-anchor="middle">14</text>
<line x1="507.0" y1="522" x2="507.0" y2="528" stroke="#777"/>
<text class="tick" x="507.0" y="548" text-anchor="middle">16</text>
<line x1="576.2" y1="522" x2="576.2" y2="528" stroke="#777"/>
<text class="tick" x="576.2" y="548" text-anchor="middle">18</text>
<line x1="645.3" y1="522" x2="645.3" y2="528" stroke="#777"/>
<text class="tick" x="645.3" y="548" text-anchor="middle">20</text>
<line x1="714.5" y1="522" x2="714.5" y2="528" stroke="#777"/>
<text class="tick" x="714.5" y="548" text-anchor="middle">22</text>
<line x1="783.7" y1="522" x2="783.7" y2="528" stroke="#777"/>
<text class="tick" x="783.7" y="548" text-anchor="middle">24</text>
<line x1="852.8" y1="522" x2="852.8" y2="528" stroke="#777"/>
<text class="tick" x="852.8" y="548" text-anchor="middle">26</text>
<line x1="922.0" y1="522" x2="922.0" y2="528" stroke="#777"/>
<text class="tick" x="922.0" y="548" text-anchor="middle">28</text>
<line x1="92" y1="70" x2="92" y2="522" stroke="#777" stroke-width="1.2"/>
<line x1="92" y1="522" x2="922" y2="522" stroke="#777" stroke-width="1.2"/>
<polyline points="92.0,258.7 161.2,257.0 230.3,251.3 299.5,293.2 368.7,287.8 437.8,286.9 507.0,339.0 576.2,430.9 645.3,478.5 714.5,464.5 783.7,445.2 852.8,469.2 922.0,483.9" fill="none" stroke="#176B87" stroke-width="3" stroke-linejoin="round" stroke-linecap="round"/>
<polyline points="92.0,217.0 161.2,460.4 230.3,460.0 299.5,469.0 368.7,457.7 437.8,408.6 507.0,287.0 576.2,174.8 645.3,117.7 714.5,388.8 783.7,448.1 852.8,482.0 922.0,494.5" fill="none" stroke="#C44A35" stroke-width="3" stroke-linejoin="round" stroke-linecap="round" stroke-dasharray="8 5"/>
<polyline points="92.0,515.6 161.2,490.1 230.3,489.7 299.5,490.0 368.7,495.0 437.8,506.6 507.0,516.2 576.2,520.1 645.3,521.2 714.5,518.8 783.7,514.3 852.8,512.2 922.0,511.7" fill="none" stroke="#5B7F36" stroke-width="3" stroke-linejoin="round" stroke-linecap="round" stroke-dasharray="3 4"/>
<circle cx="92.0" cy="258.7" r="4.5" fill="#fff" stroke="#176B87" stroke-width="2.5"/>
<circle cx="92.0" cy="217.0" r="4.5" fill="#fff" stroke="#C44A35" stroke-width="2.5"/>
<circle cx="92.0" cy="515.6" r="4.5" fill="#fff" stroke="#5B7F36" stroke-width="2.5"/>
<circle cx="161.2" cy="257.0" r="4.5" fill="#fff" stroke="#176B87" stroke-width="2.5"/>
<circle cx="161.2" cy="460.4" r="4.5" fill="#fff" stroke="#C44A35" stroke-width="2.5"/>
<circle cx="161.2" cy="490.1" r="4.5" fill="#fff" stroke="#5B7F36" stroke-width="2.5"/>
<circle cx="230.3" cy="251.3" r="4.5" fill="#fff" stroke="#176B87" stroke-width="2.5"/>
<circle cx="230.3" cy="460.0" r="4.5" fill="#fff" stroke="#C44A35" stroke-width="2.5"/>
<circle cx="230.3" cy="489.7" r="4.5" fill="#fff" stroke="#5B7F36" stroke-width="2.5"/>
<circle cx="299.5" cy="293.2" r="4.5" fill="#fff" stroke="#176B87" stroke-width="2.5"/>
<circle cx="299.5" cy="469.0" r="4.5" fill="#fff" stroke="#C44A35" stroke-width="2.5"/>
<circle cx="299.5" cy="490.0" r="4.5" fill="#fff" stroke="#5B7F36" stroke-width="2.5"/>
<circle cx="368.7" cy="287.8" r="4.5" fill="#fff" stroke="#176B87" stroke-width="2.5"/>
<circle cx="368.7" cy="457.7" r="4.5" fill="#fff" stroke="#C44A35" stroke-width="2.5"/>
<circle cx="368.7" cy="495.0" r="4.5" fill="#fff" stroke="#5B7F36" stroke-width="2.5"/>
<circle cx="437.8" cy="286.9" r="4.5" fill="#fff" stroke="#176B87" stroke-width="2.5"/>
<circle cx="437.8" cy="408.6" r="4.5" fill="#fff" stroke="#C44A35" stroke-width="2.5"/>
<circle cx="437.8" cy="506.6" r="4.5" fill="#fff" stroke="#5B7F36" stroke-width="2.5"/>
<circle cx="507.0" cy="339.0" r="4.5" fill="#fff" stroke="#176B87" stroke-width="2.5"/>
<circle cx="507.0" cy="287.0" r="4.5" fill="#fff" stroke="#C44A35" stroke-width="2.5"/>
<circle cx="507.0" cy="516.2" r="4.5" fill="#fff" stroke="#5B7F36" stroke-width="2.5"/>
<circle cx="576.2" cy="430.9" r="4.5" fill="#fff" stroke="#176B87" stroke-width="2.5"/>
<circle cx="576.2" cy="174.8" r="4.5" fill="#fff" stroke="#C44A35" stroke-width="2.5"/>
<circle cx="576.2" cy="520.1" r="4.5" fill="#fff" stroke="#5B7F36" stroke-width="2.5"/>
<circle cx="645.3" cy="478.5" r="4.5" fill="#fff" stroke="#176B87" stroke-width="2.5"/>
<circle cx="645.3" cy="117.7" r="4.5" fill="#fff" stroke="#C44A35" stroke-width="2.5"/>
<circle cx="645.3" cy="521.2" r="4.5" fill="#fff" stroke="#5B7F36" stroke-width="2.5"/>
<circle cx="714.5" cy="464.5" r="4.5" fill="#fff" stroke="#176B87" stroke-width="2.5"/>
<circle cx="714.5" cy="388.8" r="4.5" fill="#fff" stroke="#C44A35" stroke-width="2.5"/>
<circle cx="714.5" cy="518.8" r="4.5" fill="#fff" stroke="#5B7F36" stroke-width="2.5"/>
<circle cx="783.7" cy="445.2" r="4.5" fill="#fff" stroke="#176B87" stroke-width="2.5"/>
<circle cx="783.7" cy="448.1" r="4.5" fill="#fff" stroke="#C44A35" stroke-width="2.5"/>
<circle cx="783.7" cy="514.3" r="4.5" fill="#fff" stroke="#5B7F36" stroke-width="2.5"/>
<circle cx="852.8" cy="469.2" r="4.5" fill="#fff" stroke="#176B87" stroke-width="2.5"/>
<circle cx="852.8" cy="482.0" r="4.5" fill="#fff" stroke="#C44A35" stroke-width="2.5"/>
<circle cx="852.8" cy="512.2" r="4.5" fill="#fff" stroke="#5B7F36" stroke-width="2.5"/>
<circle cx="922.0" cy="483.9" r="4.5" fill="#fff" stroke="#176B87" stroke-width="2.5"/>
<circle cx="922.0" cy="494.5" r="4.5" fill="#fff" stroke="#C44A35" stroke-width="2.5"/>
<circle cx="922.0" cy="511.7" r="4.5" fill="#fff" stroke="#5B7F36" stroke-width="2.5"/>
<line x1="652" y1="15" x2="680" y2="15" stroke="#176B87" stroke-width="3"/>
<text class="legend" x="688" y="20">SAD vs PennyLane</text>
<line x1="652" y1="36" x2="680" y2="36" stroke="#C44A35" stroke-width="3" stroke-dasharray="8 5"/>
<text class="legend" x="688" y="41">SAD vs cuQuantum</text>
<line x1="652" y1="57" x2="680" y2="57" stroke="#5B7F36" stroke-width="3" stroke-dasharray="3 4"/>
<text class="legend" x="688" y="62">cuQuantum vs PennyLane</text>
<text class="label" x="507.0" y="578" text-anchor="middle">Number of qubits</text>
<text class="label" transform="translate(25 296.0) rotate(-90)" text-anchor="middle">Speedup over PennyLane QNode</text>
</svg>
