<svg xmlns="http://www.w3.org/2000/svg" width="960" height="600" viewBox="0 0 960 600">
<rect width="100%" height="100%" fill="#ffffff"/>
<style>text{font-family:Arial,Helvetica,sans-serif;fill:#252525;letter-spacing:0}.tick{font-size:14px;fill:#555}.label{font-size:17px;font-weight:600}.title{font-size:23px;font-weight:700}.subtitle{font-size:14px;fill:#666}.value{font-size:13px;font-weight:600}</style>
<text class="title" x="92" y="32">Non-shared-angle QAOA: SAD Speedup over PennyLane</text>
<text class="subtitle" x="92" y="54">End-to-end QNode time / SAD time (higher is better)</text>
<line x1="92" y1="522.0" x2="922" y2="522.0" stroke="#dedede" stroke-width="1"/>
<text class="tick" x="80" y="527.0" text-anchor="end">0x</text>
<line x1="92" y1="431.6" x2="922" y2="431.6" stroke="#dedede" stroke-width="1"/>
<text class="tick" x="80" y="436.6" text-anchor="end">8x</text>
<line x1="92" y1="341.2" x2="922" y2="341.2" stroke="#dedede" stroke-width="1"/>
<text class="tick" x="80" y="346.2" text-anchor="end">16x</text>
<line x1="92" y1="250.8" x2="922" y2="250.8" stroke="#dedede" stroke-width="1"/>
<text class="tick" x="80" y="255.8" text-anchor="end">25x</text>
<line x1="92" y1="160.4" x2="922" y2="160.4" stroke="#dedede" stroke-width="1"/>
<text class="tick" x="80" y="165.4" text-anchor="end">33x</text>
<line x1="92" y1="70.0" x2="922" y2="70.0" stroke="#dedede" stroke-width="1"/>
<text class="tick" x="80" y="75.0" text-anchor="end">41x</text>
<line x1="92.0" y1="522" x2="92.0" y2="528" stroke="#777"/>
<text class="tick" x="92.0" y="548" text-anchor="middle">4</text>
<line x1="161.2" y1="522" x2="161.2" y2="528" stroke="#777"/>
<text class="tick" x="161.2" y="548" text-anchor="middle">6</text>
<line x1="230.3" y1="522" x2="230.3" y2="528" stroke="#777"/>
<text class="tick" x="230.3" y="548" text-anchor="middle">8</text>
<line x1="299.5" y1="522" x2="299.5" y2="528" stroke="#777"/>
<text class="tick" x="299.5" y="548" text-anchor="middle">10</text>
<line x1="368.7" y1="522" x2="368.7" y2="528" stroke="#777"/>
<text class="tick" x="368.7" y="548" text-anchor="middle">12</text>
<line x1="437.8" y1="522" x2="437.8" y2="528" stroke="#777"/>
<text class="tick" x="437.8" y="548" text-anchor="middle">14</text>
<line x1="507.0" y1="522" x2="507.0" y2="528" stroke="#777"/>
<text class="tick" x="507.0" y="548" text-anchor="middle">16</text>
<line x1="576.2" y1="522" x2="576.2" y2="528" stroke="#777"/>
<text class="tick" x="576.2" y="548" text-anchor="middle">18</text>
<line x1="645.3" y1="522" x2="645.3" y2="528" stroke="#777"/>
<text class="tick" x="645.3" y="548" text-anchor="middle">20</text>
<line x1="714.5" y1="522" x2="714.5" y2="528" stroke="#777"/>
<text class="tick" x="714.5" y="548" text-anchor="middle">22</text>
<line x1="783.7" y1="522" x2="783.7" y2="528" stroke="#777"/>
<text class="tick" x="783.7" y="548" text-anchor="middle">24</text>
<line x1="852.8" y1="522" x2="852.8" y2="528" stroke="#777"/>
<text class="tick" x="852.8" y="548" text-anchor="middle">26</text>
<line x1="922.0" y1="522" x2="922.0" y2="528" stroke="#777"/>
<text class="tick" x="922.0" y="548" text-anchor="middle">28</text>
<line x1="92" y1="70" x2="92" y2="522" stroke="#777" stroke-width="1.2"/>
<line x1="92" y1="522" x2="922" y2="522" stroke="#777" stroke-width="1.2"/>
<polyline points="92.0,130.3 161.2,127.8 230.3,119.3 299.5,181.5 368.7,173.5 437.8,172.3 507.0,249.8 576.2,386.5 645.3,457.3 714.5,436.5 783.7,407.8 852.8,443.5 922.0,465.3" fill="none" stroke="#8A4F9E" stroke-width="3" stroke-linejoin="round" stroke-linecap="round"/>
<circle cx="92.0" cy="130.3" r="5" fill="#fff" stroke="#8A4F9E" stroke-width="3"/>
<circle cx="161.2" cy="127.8" r="5" fill="#fff" stroke="#8A4F9E" stroke-width="3"/>
<circle cx="230.3" cy="119.3" r="5" fill="#fff" stroke="#8A4F9E" stroke-width="3"/>
<circle cx="299.5" cy="181.5" r="5" fill="#fff" stroke="#8A4F9E" stroke-width="3"/>
<circle cx="368.7" cy="173.5" r="5" fill="#fff" stroke="#8A4F9E" stroke-width="3"/>
<circle cx="437.8" cy="172.3" r="5" fill="#fff" stroke="#8A4F9E" stroke-width="3"/>
<circle cx="507.0" cy="249.8" r="5" fill="#fff" stroke="#8A4F9E" stroke-width="3"/>
<circle cx="576.2" cy="386.5" r="5" fill="#fff" stroke="#8A4F9E" stroke-width="3"/>
<circle cx="645.3" cy="457.3" r="5" fill="#fff" stroke="#8A4F9E" stroke-width="3"/>
<circle cx="714.5" cy="436.5" r="5" fill="#fff" stroke="#8A4F9E" stroke-width="3"/>
<circle cx="783.7" cy="407.8" r="5" fill="#fff" stroke="#8A4F9E" stroke-width="3"/>
<circle cx="852.8" cy="443.5" r="5" fill="#fff" stroke="#8A4F9E" stroke-width="3"/>
<circle cx="922.0" cy="465.3" r="5" fill="#fff" stroke="#8A4F9E" stroke-width="3"/>
<text class="value" x="230.3" y="105.3" text-anchor="middle" fill="#8A4F9E">Peak 36.5x</text>
<text class="label" x="507.0" y="578" text-anchor="middle">Number of qubits</text>
<text class="label" transform="translate(25 296.0) rotate(-90)" text-anchor="middle">Speedup over PennyLane QNode</text>
</svg>
