<svg xmlns="http://www.w3.org/2000/svg" width="1280" height="760" viewBox="0 0 1280 760">
<rect width="100%" height="100%" fill="#f7f8fa"/>
<text x="90.0" y="36.0" font-size="24" font-weight="700" fill="#171b20">MERA parameter-search performance</text>
<text x="90.0" y="62.0" font-size="14" fill="#5d6772">Absolute runtime and speedup across qubit counts</text>
<text x="90.0" y="78.0" font-size="16" font-weight="700" fill="#20262d">Absolute time</text>
<rect x="90" y="92" width="1145" height="278" fill="#ffffff"/>
<line x1="90" y1="370.0" x2="1235" y2="370.0" stroke="#d9dee5"/>
<text x="78.0" y="375.0" text-anchor="end" font-size="13" fill="#52606d">0</text>
<line x1="90" y1="314.4" x2="1235" y2="314.4" stroke="#d9dee5"/>
<text x="78.0" y="319.4" text-anchor="end" font-size="13" fill="#52606d">1508</text>
<line x1="90" y1="258.8" x2="1235" y2="258.8" stroke="#d9dee5"/>
<text x="78.0" y="263.8" text-anchor="end" font-size="13" fill="#52606d">3017</text>
<line x1="90" y1="203.2" x2="1235" y2="203.2" stroke="#d9dee5"/>
<text x="78.0" y="208.2" text-anchor="end" font-size="13" fill="#52606d">4525</text>
<line x1="90" y1="147.6" x2="1235" y2="147.6" stroke="#d9dee5"/>
<text x="78.0" y="152.6" text-anchor="end" font-size="13" fill="#52606d">6034</text>
<line x1="90" y1="92.0" x2="1235" y2="92.0" stroke="#d9dee5"/>
<text x="78.0" y="97.0" text-anchor="end" font-size="13" fill="#52606d">7542</text>
<line x1="90.0" y1="92" x2="90.0" y2="370" stroke="#eef1f4"/>
<text x="90.0" y="394.0" text-anchor="middle" font-size="13" fill="#52606d">4</text>
<line x1="185.4" y1="92" x2="185.4" y2="370" stroke="#eef1f4"/>
<text x="185.4" y="394.0" text-anchor="middle" font-size="13" fill="#52606d">6</text>
<line x1="280.8" y1="92" x2="280.8" y2="370" stroke="#eef1f4"/>
<text x="280.8" y="394.0" text-anchor="middle" font-size="13" fill="#52606d">8</text>
<line x1="376.2" y1="92" x2="376.2" y2="370" stroke="#eef1f4"/>
<text x="376.2" y="394.0" text-anchor="middle" font-size="13" fill="#52606d">10</text>
<line x1="471.7" y1="92" x2="471.7" y2="370" stroke="#eef1f4"/>
<text x="471.7" y="394.0" text-anchor="middle" font-size="13" fill="#52606d">12</text>
<line x1="567.1" y1="92" x2="567.1" y2="370" stroke="#eef1f4"/>
<text x="567.1" y="394.0" text-anchor="middle" font-size="13" fill="#52606d">14</text>
<line x1="662.5" y1="92" x2="662.5" y2="370" stroke="#eef1f4"/>
<text x="662.5" y="394.0" text-anchor="middle" font-size="13" fill="#52606d">16</text>
<line x1="757.9" y1="92" x2="757.9" y2="370" stroke="#eef1f4"/>
<text x="757.9" y="394.0" text-anchor="middle" font-size="13" fill="#52606d">18</text>
<line x1="853.3" y1="92" x2="853.3" y2="370" stroke="#eef1f4"/>
<text x="853.3" y="394.0" text-anchor="middle" font-size="13" fill="#52606d">20</text>
<line x1="948.8" y1="92" x2="948.8" y2="370" stroke="#eef1f4"/>
<text x="948.8" y="394.0" text-anchor="middle" font-size="13" fill="#52606d">22</text>
<line x1="1044.2" y1="92" x2="1044.2" y2="370" stroke="#eef1f4"/>
<text x="1044.2" y="394.0" text-anchor="middle" font-size="13" fill="#52606d">24</text>
<line x1="1139.6" y1="92" x2="1139.6" y2="370" stroke="#eef1f4"/>
<text x="1139.6" y="394.0" text-anchor="middle" font-size="13" fill="#52606d">26</text>
<line x1="1235.0" y1="92" x2="1235.0" y2="370" stroke="#eef1f4"/>
<text x="1235.0" y="394.0" text-anchor="middle" font-size="13" fill="#52606d">28</text>
<line x1="90" y1="92" x2="90" y2="370" stroke="#3d4752" stroke-width="1.5"/>
<line x1="90" y1="370" x2="1235" y2="370" stroke="#3d4752" stroke-width="1.5"/>
<text x="25.0" y="231.0" text-anchor="middle" font-size="14" fill="#20262d" transform="rotate(-90 25 231.0)">Time (ms)</text>
<polyline points="90.0,370.0 185.4,370.0 280.8,370.0 376.2,370.0 471.7,370.0 567.1,370.0 662.5,370.0 757.9,370.0 853.3,369.9 948.8,369.6 1044.2,368.1 1139.6,361.5 1235.0,332.7" fill="none" stroke="#00796b" stroke-width="2.5"/>
<circle cx="90.0" cy="370.0" r="3.5" fill="#00796b" stroke="#ffffff" stroke-width="1"/>
<circle cx="185.4" cy="370.0" r="3.5" fill="#00796b" stroke="#ffffff" stroke-width="1"/>
<circle cx="280.8" cy="370.0" r="3.5" fill="#00796b" stroke="#ffffff" stroke-width="1"/>
<circle cx="376.2" cy="370.0" r="3.5" fill="#00796b" stroke="#ffffff" stroke-width="1"/>
<circle cx="471.7" cy="370.0" r="3.5" fill="#00796b" stroke="#ffffff" stroke-width="1"/>
<circle cx="567.1" cy="370.0" r="3.5" fill="#00796b" stroke="#ffffff" stroke-width="1"/>
<circle cx="662.5" cy="370.0" r="3.5" fill="#00796b" stroke="#ffffff" stroke-width="1"/>
<circle cx="757.9" cy="370.0" r="3.5" fill="#00796b" stroke="#ffffff" stroke-width="1"/>
<circle cx="853.3" cy="369.9" r="3.5" fill="#00796b" stroke="#ffffff" stroke-width="1"/>
<circle cx="948.8" cy="369.6" r="3.5" fill="#00796b" stroke="#ffffff" stroke-width="1"/>
<circle cx="1044.2" cy="368.1" r="3.5" fill="#00796b" stroke="#ffffff" stroke-width="1"/>
<circle cx="1139.6" cy="361.5" r="3.5" fill="#00796b" stroke="#ffffff" stroke-width="1"/>
<circle cx="1235.0" cy="332.7" r="3.5" fill="#00796b" stroke="#ffffff" stroke-width="1"/>
<polyline points="90.0,370.0 185.4,370.0 280.8,370.0 376.2,370.0 471.7,370.0 567.1,370.0 662.5,370.0 757.9,370.0 853.3,369.9 948.8,369.6 1044.2,368.0 1139.6,360.8 1235.0,329.0" fill="none" stroke="#d97706" stroke-width="2.5"/>
<circle cx="90.0" cy="370.0" r="3.5" fill="#d97706" stroke="#ffffff" stroke-width="1"/>
<circle cx="185.4" cy="370.0" r="3.5" fill="#d97706" stroke="#ffffff" stroke-width="1"/>
<circle cx="280.8" cy="370.0" r="3.5" fill="#d97706" stroke="#ffffff" stroke-width="1"/>
<circle cx="376.2" cy="370.0" r="3.5" fill="#d97706" stroke="#ffffff" stroke-width="1"/>
<circle cx="471.7" cy="370.0" r="3.5" fill="#d97706" stroke="#ffffff" stroke-width="1"/>
<circle cx="567.1" cy="370.0" r="3.5" fill="#d97706" stroke="#ffffff" stroke-width="1"/>
<circle cx="662.5" cy="370.0" r="3.5" fill="#d97706" stroke="#ffffff" stroke-width="1"/>
<circle cx="757.9" cy="370.0" r="3.5" fill="#d97706" stroke="#ffffff" stroke-width="1"/>
<circle cx="853.3" cy="369.9" r="3.5" fill="#d97706" stroke="#ffffff" stroke-width="1"/>
<circle cx="948.8" cy="369.6" r="3.5" fill="#d97706" stroke="#ffffff" stroke-width="1"/>
<circle cx="1044.2" cy="368.0" r="3.5" fill="#d97706" stroke="#ffffff" stroke-width="1"/>
<circle cx="1139.6" cy="360.8" r="3.5" fill="#d97706" stroke="#ffffff" stroke-width="1"/>
<circle cx="1235.0" cy="329.0" r="3.5" fill="#d97706" stroke="#ffffff" stroke-width="1"/>
<polyline points="90.0,369.8 185.4,369.8 280.8,369.8 376.2,369.7 471.7,369.7 567.1,369.7 662.5,369.7 757.9,369.6 853.3,369.3 948.8,367.2 1044.2,355.4 1139.6,306.8 1235.0,105.2" fill="none" stroke="#6d28d9" stroke-width="2.5" stroke-dasharray="8 5"/>
<circle cx="90.0" cy="369.8" r="3.5" fill="#6d28d9" stroke="#ffffff" stroke-width="1"/>
<circle cx="185.4" cy="369.8" r="3.5" fill="#6d28d9" stroke="#ffffff" stroke-width="1"/>
<circle cx="280.8" cy="369.8" r="3.5" fill="#6d28d9" stroke="#ffffff" stroke-width="1"/>
<circle cx="376.2" cy="369.7" r="3.5" fill="#6d28d9" stroke="#ffffff" stroke-width="1"/>
<circle cx="471.7" cy="369.7" r="3.5" fill="#6d28d9" stroke="#ffffff" stroke-width="1"/>
<circle cx="567.1" cy="369.7" r="3.5" fill="#6d28d9" stroke="#ffffff" stroke-width="1"/>
<circle cx="662.5" cy="369.7" r="3.5" fill="#6d28d9" stroke="#ffffff" stroke-width="1"/>
<circle cx="757.9" cy="369.6" r="3.5" fill="#6d28d9" stroke="#ffffff" stroke-width="1"/>
<circle cx="853.3" cy="369.3" r="3.5" fill="#6d28d9" stroke="#ffffff" stroke-width="1"/>
<circle cx="948.8" cy="367.2" r="3.5" fill="#6d28d9" stroke="#ffffff" stroke-width="1"/>
<circle cx="1044.2" cy="355.4" r="3.5" fill="#6d28d9" stroke="#ffffff" stroke-width="1"/>
<circle cx="1139.6" cy="306.8" r="3.5" fill="#6d28d9" stroke="#ffffff" stroke-width="1"/>
<circle cx="1235.0" cy="105.2" r="3.5" fill="#6d28d9" stroke="#ffffff" stroke-width="1"/>
<polyline points="90.0,369.7 185.4,369.9 280.8,369.9 376.2,369.9 471.7,369.9 567.1,369.9 662.5,369.7 757.9,368.9 853.3,365.8 948.8,363.3 1044.2,351.5 1139.6,304.2 1235.0,109.5" fill="none" stroke="#2563eb" stroke-width="2.5" stroke-dasharray="8 5"/>
<circle cx="90.0" cy="369.7" r="3.5" fill="#2563eb" stroke="#ffffff" stroke-width="1"/>
<circle cx="185.4" cy="369.9" r="3.5" fill="#2563eb" stroke="#ffffff" stroke-width="1"/>
<circle cx="280.8" cy="369.9" r="3.5" fill="#2563eb" stroke="#ffffff" stroke-width="1"/>
<circle cx="376.2" cy="369.9" r="3.5" fill="#2563eb" stroke="#ffffff" stroke-width="1"/>
<circle cx="471.7" cy="369.9" r="3.5" fill="#2563eb" stroke="#ffffff" stroke-width="1"/>
<circle cx="567.1" cy="369.9" r="3.5" fill="#2563eb" stroke="#ffffff" stroke-width="1"/>
<circle cx="662.5" cy="369.7" r="3.5" fill="#2563eb" stroke="#ffffff" stroke-width="1"/>
<circle cx="757.9" cy="368.9" r="3.5" fill="#2563eb" stroke="#ffffff" stroke-width="1"/>
<circle cx="853.3" cy="365.8" r="3.5" fill="#2563eb" stroke="#ffffff" stroke-width="1"/>
<circle cx="948.8" cy="363.3" r="3.5" fill="#2563eb" stroke="#ffffff" stroke-width="1"/>
<circle cx="1044.2" cy="351.5" r="3.5" fill="#2563eb" stroke="#ffffff" stroke-width="1"/>
<circle cx="1139.6" cy="304.2" r="3.5" fill="#2563eb" stroke="#ffffff" stroke-width="1"/>
<circle cx="1235.0" cy="109.5" r="3.5" fill="#2563eb" stroke="#ffffff" stroke-width="1"/>
<line x1="90.0" y1="422" x2="120.0" y2="422" stroke="#00796b" stroke-width="3"/>
<text x="128.0" y="427.0" font-size="13" fill="#303841">SAD fastest</text>
<line x1="376.2" y1="422" x2="406.2" y2="422" stroke="#d97706" stroke-width="3"/>
<text x="414.2" y="427.0" font-size="13" fill="#303841">SAD average</text>
<line x1="662.5" y1="422" x2="692.5" y2="422" stroke="#6d28d9" stroke-width="3" stroke-dasharray="8 5"/>
<text x="700.5" y="427.0" font-size="13" fill="#303841">PennyLane</text>
<line x1="948.8" y1="422" x2="978.8" y2="422" stroke="#2563eb" stroke-width="3" stroke-dasharray="8 5"/>
<text x="986.8" y="427.0" font-size="13" fill="#303841">cuQuantum</text>
<text x="90.0" y="434.0" font-size="16" font-weight="700" fill="#20262d">Speedup</text>
<rect x="90" y="448" width="1145" height="242" fill="#ffffff"/>
<line x1="90" y1="690.0" x2="1235" y2="690.0" stroke="#d9dee5"/>
<text x="78.0" y="695.0" text-anchor="end" font-size="13" fill="#52606d">0</text>
<line x1="90" y1="641.6" x2="1235" y2="641.6" stroke="#d9dee5"/>
<text x="78.0" y="646.6" text-anchor="end" font-size="13" fill="#52606d">28.8</text>
<line x1="90" y1="593.2" x2="1235" y2="593.2" stroke="#d9dee5"/>
<text x="78.0" y="598.2" text-anchor="end" font-size="13" fill="#52606d">57.6</text>
<line x1="90" y1="544.8" x2="1235" y2="544.8" stroke="#d9dee5"/>
<text x="78.0" y="549.8" text-anchor="end" font-size="13" fill="#52606d">86.4</text>
<line x1="90" y1="496.4" x2="1235" y2="496.4" stroke="#d9dee5"/>
<text x="78.0" y="501.4" text-anchor="end" font-size="13" fill="#52606d">115.2</text>
<line x1="90" y1="448.0" x2="1235" y2="448.0" stroke="#d9dee5"/>
<text x="78.0" y="453.0" text-anchor="end" font-size="13" fill="#52606d">144.0</text>
<line x1="90.0" y1="448" x2="90.0" y2="690" stroke="#eef1f4"/>
<text x="90.0" y="714.0" text-anchor="middle" font-size="13" fill="#52606d">4</text>
<line x1="185.4" y1="448" x2="185.4" y2="690" stroke="#eef1f4"/>
<text x="185.4" y="714.0" text-anchor="middle" font-size="13" fill="#52606d">6</text>
<line x1="280.8" y1="448" x2="280.8" y2="690" stroke="#eef1f4"/>
<text x="280.8" y="714.0" text-anchor="middle" font-size="13" fill="#52606d">8</text>
<line x1="376.2" y1="448" x2="376.2" y2="690" stroke="#eef1f4"/>
<text x="376.2" y="714.0" text-anchor="middle" font-size="13" fill="#52606d">10</text>
<line x1="471.7" y1="448" x2="471.7" y2="690" stroke="#eef1f4"/>
<text x="471.7" y="714.0" text-anchor="middle" font-size="13" fill="#52606d">12</text>
<line x1="567.1" y1="448" x2="567.1" y2="690" stroke="#eef1f4"/>
<text x="567.1" y="714.0" text-anchor="middle" font-size="13" fill="#52606d">14</text>
<line x1="662.5" y1="448" x2="662.5" y2="690" stroke="#eef1f4"/>
<text x="662.5" y="714.0" text-anchor="middle" font-size="13" fill="#52606d">16</text>
<line x1="757.9" y1="448" x2="757.9" y2="690" stroke="#eef1f4"/>
<text x="757.9" y="714.0" text-anchor="middle" font-size="13" fill="#52606d">18</text>
<line x1="853.3" y1="448" x2="853.3" y2="690" stroke="#eef1f4"/>
<text x="853.3" y="714.0" text-anchor="middle" font-size="13" fill="#52606d">20</text>
<line x1="948.8" y1="448" x2="948.8" y2="690" stroke="#eef1f4"/>
<text x="948.8" y="714.0" text-anchor="middle" font-size="13" fill="#52606d">22</text>
<line x1="1044.2" y1="448" x2="1044.2" y2="690" stroke="#eef1f4"/>
<text x="1044.2" y="714.0" text-anchor="middle" font-size="13" fill="#52606d">24</text>
<line x1="1139.6" y1="448" x2="1139.6" y2="690" stroke="#eef1f4"/>
<text x="1139.6" y="714.0" text-anchor="middle" font-size="13" fill="#52606d">26</text>
<line x1="1235.0" y1="448" x2="1235.0" y2="690" stroke="#eef1f4"/>
<text x="1235.0" y="714.0" text-anchor="middle" font-size="13" fill="#52606d">28</text>
<line x1="90" y1="448" x2="90" y2="690" stroke="#3d4752" stroke-width="1.5"/>
<line x1="90" y1="690" x2="1235" y2="690" stroke="#3d4752" stroke-width="1.5"/>
<text x="25.0" y="569.0" text-anchor="middle" font-size="14" fill="#20262d" transform="rotate(-90 25 569.0)">Speedup (x)</text>
<polyline points="90.0,578.5 185.4,603.9 280.8,602.2 376.2,617.0 471.7,611.3 567.1,613.9 662.5,631.4 757.9,662.7 853.3,677.4 948.8,677.9 1044.2,676.8 1139.6,677.5 1235.0,678.1" fill="none" stroke="#6d28d9" stroke-width="2.5"/>
<circle cx="90.0" cy="578.5" r="3.5" fill="#6d28d9" stroke="#ffffff" stroke-width="1"/>
<circle cx="185.4" cy="603.9" r="3.5" fill="#6d28d9" stroke="#ffffff" stroke-width="1"/>
<circle cx="280.8" cy="602.2" r="3.5" fill="#6d28d9" stroke="#ffffff" stroke-width="1"/>
<circle cx="376.2" cy="617.0" r="3.5" fill="#6d28d9" stroke="#ffffff" stroke-width="1"/>
<circle cx="471.7" cy="611.3" r="3.5" fill="#6d28d9" stroke="#ffffff" stroke-width="1"/>
<circle cx="567.1" cy="613.9" r="3.5" fill="#6d28d9" stroke="#ffffff" stroke-width="1"/>
<circle cx="662.5" cy="631.4" r="3.5" fill="#6d28d9" stroke="#ffffff" stroke-width="1"/>
<circle cx="757.9" cy="662.7" r="3.5" fill="#6d28d9" stroke="#ffffff" stroke-width="1"/>
<circle cx="853.3" cy="677.4" r="3.5" fill="#6d28d9" stroke="#ffffff" stroke-width="1"/>
<circle cx="948.8" cy="677.9" r="3.5" fill="#6d28d9" stroke="#ffffff" stroke-width="1"/>
<circle cx="1044.2" cy="676.8" r="3.5" fill="#6d28d9" stroke="#ffffff" stroke-width="1"/>
<circle cx="1139.6" cy="677.5" r="3.5" fill="#6d28d9" stroke="#ffffff" stroke-width="1"/>
<circle cx="1235.0" cy="678.1" r="3.5" fill="#6d28d9" stroke="#ffffff" stroke-width="1"/>
<polyline points="90.0,604.1 185.4,624.8 280.8,629.8 376.2,640.7 471.7,642.6 567.1,643.4 662.5,645.4 757.9,665.4 853.3,678.6 948.8,678.7 1044.2,677.5 1139.6,678.4 1235.0,679.2" fill="none" stroke="#c026d3" stroke-width="2.5" stroke-dasharray="7 4"/>
<circle cx="90.0" cy="604.1" r="3.5" fill="#c026d3" stroke="#ffffff" stroke-width="1"/>
<circle cx="185.4" cy="624.8" r="3.5" fill="#c026d3" stroke="#ffffff" stroke-width="1"/>
<circle cx="280.8" cy="629.8" r="3.5" fill="#c026d3" stroke="#ffffff" stroke-width="1"/>
<circle cx="376.2" cy="640.7" r="3.5" fill="#c026d3" stroke="#ffffff" stroke-width="1"/>
<circle cx="471.7" cy="642.6" r="3.5" fill="#c026d3" stroke="#ffffff" stroke-width="1"/>
<circle cx="567.1" cy="643.4" r="3.5" fill="#c026d3" stroke="#ffffff" stroke-width="1"/>
<circle cx="662.5" cy="645.4" r="3.5" fill="#c026d3" stroke="#ffffff" stroke-width="1"/>
<circle cx="757.9" cy="665.4" r="3.5" fill="#c026d3" stroke="#ffffff" stroke-width="1"/>
<circle cx="853.3" cy="678.6" r="3.5" fill="#c026d3" stroke="#ffffff" stroke-width="1"/>
<circle cx="948.8" cy="678.7" r="3.5" fill="#c026d3" stroke="#ffffff" stroke-width="1"/>
<circle cx="1044.2" cy="677.5" r="3.5" fill="#c026d3" stroke="#ffffff" stroke-width="1"/>
<circle cx="1139.6" cy="678.4" r="3.5" fill="#c026d3" stroke="#ffffff" stroke-width="1"/>
<circle cx="1235.0" cy="679.2" r="3.5" fill="#c026d3" stroke="#ffffff" stroke-width="1"/>
<polyline points="90.0,459.5 185.4,662.6 280.8,663.9 376.2,669.4 471.7,666.6 567.1,659.3 662.5,643.5 757.9,621.9 853.3,610.4 948.8,660.7 1044.2,673.2 1139.6,677.0 1235.0,678.3" fill="none" stroke="#2563eb" stroke-width="2.5"/>
<circle cx="90.0" cy="459.5" r="3.5" fill="#2563eb" stroke="#ffffff" stroke-width="1"/>
<circle cx="185.4" cy="662.6" r="3.5" fill="#2563eb" stroke="#ffffff" stroke-width="1"/>
<circle cx="280.8" cy="663.9" r="3.5" fill="#2563eb" stroke="#ffffff" stroke-width="1"/>
<circle cx="376.2" cy="669.4" r="3.5" fill="#2563eb" stroke="#ffffff" stroke-width="1"/>
<circle cx="471.7" cy="666.6" r="3.5" fill="#2563eb" stroke="#ffffff" stroke-width="1"/>
<circle cx="567.1" cy="659.3" r="3.5" fill="#2563eb" stroke="#ffffff" stroke-width="1"/>
<circle cx="662.5" cy="643.5" r="3.5" fill="#2563eb" stroke="#ffffff" stroke-width="1"/>
<circle cx="757.9" cy="621.9" r="3.5" fill="#2563eb" stroke="#ffffff" stroke-width="1"/>
<circle cx="853.3" cy="610.4" r="3.5" fill="#2563eb" stroke="#ffffff" stroke-width="1"/>
<circle cx="948.8" cy="660.7" r="3.5" fill="#2563eb" stroke="#ffffff" stroke-width="1"/>
<circle cx="1044.2" cy="673.2" r="3.5" fill="#2563eb" stroke="#ffffff" stroke-width="1"/>
<circle cx="1139.6" cy="677.0" r="3.5" fill="#2563eb" stroke="#ffffff" stroke-width="1"/>
<circle cx="1235.0" cy="678.3" r="3.5" fill="#2563eb" stroke="#ffffff" stroke-width="1"/>
<polyline points="90.0,512.5 185.4,669.3 280.8,672.1 376.2,676.1 471.7,675.9 567.1,671.2 662.5,654.6 757.9,628.6 853.3,617.9 948.8,662.5 1044.2,674.1 1139.6,677.9 1235.0,679.3" fill="none" stroke="#0891b2" stroke-width="2.5" stroke-dasharray="7 4"/>
<circle cx="90.0" cy="512.5" r="3.5" fill="#0891b2" stroke="#ffffff" stroke-width="1"/>
<circle cx="185.4" cy="669.3" r="3.5" fill="#0891b2" stroke="#ffffff" stroke-width="1"/>
<circle cx="280.8" cy="672.1" r="3.5" fill="#0891b2" stroke="#ffffff" stroke-width="1"/>
<circle cx="376.2" cy="676.1" r="3.5" fill="#0891b2" stroke="#ffffff" stroke-width="1"/>
<circle cx="471.7" cy="675.9" r="3.5" fill="#0891b2" stroke="#ffffff" stroke-width="1"/>
<circle cx="567.1" cy="671.2" r="3.5" fill="#0891b2" stroke="#ffffff" stroke-width="1"/>
<circle cx="662.5" cy="654.6" r="3.5" fill="#0891b2" stroke="#ffffff" stroke-width="1"/>
<circle cx="757.9" cy="628.6" r="3.5" fill="#0891b2" stroke="#ffffff" stroke-width="1"/>
<circle cx="853.3" cy="617.9" r="3.5" fill="#0891b2" stroke="#ffffff" stroke-width="1"/>
<circle cx="948.8" cy="662.5" r="3.5" fill="#0891b2" stroke="#ffffff" stroke-width="1"/>
<circle cx="1044.2" cy="674.1" r="3.5" fill="#0891b2" stroke="#ffffff" stroke-width="1"/>
<circle cx="1139.6" cy="677.9" r="3.5" fill="#0891b2" stroke="#ffffff" stroke-width="1"/>
<circle cx="1235.0" cy="679.3" r="3.5" fill="#0891b2" stroke="#ffffff" stroke-width="1"/>
<line x1="90" y1="688.3" x2="1235" y2="688.3" stroke="#7b8794" stroke-width="1.5" stroke-dasharray="3 4"/>
<line x1="90.0" y1="726" x2="120.0" y2="726" stroke="#6d28d9" stroke-width="3"/>
<text x="128.0" y="731.0" font-size="13" fill="#303841">PL / SAD fastest</text>
<line x1="376.2" y1="726" x2="406.2" y2="726" stroke="#c026d3" stroke-width="3" stroke-dasharray="7 4"/>
<text x="414.2" y="731.0" font-size="13" fill="#303841">PL / SAD average</text>
<line x1="662.5" y1="726" x2="692.5" y2="726" stroke="#2563eb" stroke-width="3"/>
<text x="700.5" y="731.0" font-size="13" fill="#303841">cuQ / SAD fastest</text>
<line x1="948.8" y1="726" x2="978.8" y2="726" stroke="#0891b2" stroke-width="3" stroke-dasharray="7 4"/>
<text x="986.8" y="731.0" font-size="13" fill="#303841">cuQ / SAD average</text>
<text x="662.5" y="752.0" text-anchor="middle" font-size="14" fill="#20262d">Qubits</text>
</svg>
