<svg xmlns="http://www.w3.org/2000/svg" width="1280" height="760" viewBox="0 0 1280 760">
<rect width="100%" height="100%" fill="#f7f8fa"/>
<text x="90.0" y="36.0" font-size="24" font-weight="700" fill="#171b20">QAOA-NS-BD parameter-search performance</text>
<text x="90.0" y="62.0" font-size="14" fill="#5d6772">Absolute runtime and speedup across qubit counts</text>
<text x="90.0" y="78.0" font-size="16" font-weight="700" fill="#20262d">Absolute time</text>
<rect x="90" y="92" width="1145" height="278" fill="#ffffff"/>
<line x1="90" y1="370.0" x2="1235" y2="370.0" stroke="#d9dee5"/>
<text x="78.0" y="375.0" text-anchor="end" font-size="13" fill="#52606d">0</text>
<line x1="90" y1="314.4" x2="1235" y2="314.4" stroke="#d9dee5"/>
<text x="78.0" y="319.4" text-anchor="end" font-size="13" fill="#52606d">8900</text>
<line x1="90" y1="258.8" x2="1235" y2="258.8" stroke="#d9dee5"/>
<text x="78.0" y="263.8" text-anchor="end" font-size="13" fill="#52606d">17800</text>
<line x1="90" y1="203.2" x2="1235" y2="203.2" stroke="#d9dee5"/>
<text x="78.0" y="208.2" text-anchor="end" font-size="13" fill="#52606d">26700</text>
<line x1="90" y1="147.6" x2="1235" y2="147.6" stroke="#d9dee5"/>
<text x="78.0" y="152.6" text-anchor="end" font-size="13" fill="#52606d">35600</text>
<line x1="90" y1="92.0" x2="1235" y2="92.0" stroke="#d9dee5"/>
<text x="78.0" y="97.0" text-anchor="end" font-size="13" fill="#52606d">44500</text>
<line x1="90.0" y1="92" x2="90.0" y2="370" stroke="#eef1f4"/>
<text x="90.0" y="394.0" text-anchor="middle" font-size="13" fill="#52606d">4</text>
<line x1="185.4" y1="92" x2="185.4" y2="370" stroke="#eef1f4"/>
<text x="185.4" y="394.0" text-anchor="middle" font-size="13" fill="#52606d">6</text>
<line x1="280.8" y1="92" x2="280.8" y2="370" stroke="#eef1f4"/>
<text x="280.8" y="394.0" text-anchor="middle" font-size="13" fill="#52606d">8</text>
<line x1="376.2" y1="92" x2="376.2" y2="370" stroke="#eef1f4"/>
<text x="376.2" y="394.0" text-anchor="middle" font-size="13" fill="#52606d">10</text>
<line x1="471.7" y1="92" x2="471.7" y2="370" stroke="#eef1f4"/>
<text x="471.7" y="394.0" text-anchor="middle" font-size="13" fill="#52606d">12</text>
<line x1="567.1" y1="92" x2="567.1" y2="370" stroke="#eef1f4"/>
<text x="567.1" y="394.0" text-anchor="middle" font-size="13" fill="#52606d">14</text>
<line x1="662.5" y1="92" x2="662.5" y2="370" stroke="#eef1f4"/>
<text x="662.5" y="394.0" text-anchor="middle" font-size="13" fill="#52606d">16</text>
<line x1="757.9" y1="92" x2="757.9" y2="370" stroke="#eef1f4"/>
<text x="757.9" y="394.0" text-anchor="middle" font-size="13" fill="#52606d">18</text>
<line x1="853.3" y1="92" x2="853.3" y2="370" stroke="#eef1f4"/>
<text x="853.3" y="394.0" text-anchor="middle" font-size="13" fill="#52606d">20</text>
<line x1="948.8" y1="92" x2="948.8" y2="370" stroke="#eef1f4"/>
<text x="948.8" y="394.0" text-anchor="middle" font-size="13" fill="#52606d">22</text>
<line x1="1044.2" y1="92" x2="1044.2" y2="370" stroke="#eef1f4"/>
<text x="1044.2" y="394.0" text-anchor="middle" font-size="13" fill="#52606d">24</text>
<line x1="1139.6" y1="92" x2="1139.6" y2="370" stroke="#eef1f4"/>
<text x="1139.6" y="394.0" text-anchor="middle" font-size="13" fill="#52606d">26</text>
<line x1="1235.0" y1="92" x2="1235.0" y2="370" stroke="#eef1f4"/>
<text x="1235.0" y="394.0" text-anchor="middle" font-size="13" fill="#52606d">28</text>
<line x1="90" y1="92" x2="90" y2="370" stroke="#3d4752" stroke-width="1.5"/>
<line x1="90" y1="370" x2="1235" y2="370" stroke="#3d4752" stroke-width="1.5"/>
<text x="25.0" y="231.0" text-anchor="middle" font-size="14" fill="#20262d" transform="rotate(-90 25 231.0)">Time (ms)</text>
<polyline points="90.0,370.0 185.4,370.0 280.8,370.0 376.2,370.0 471.7,370.0 567.1,370.0 662.5,370.0 757.9,370.0 853.3,370.0 948.8,369.8 1044.2,369.2 1139.6,366.5 1235.0,354.4" fill="none" stroke="#00796b" stroke-width="2.5"/>
<circle cx="90.0" cy="370.0" r="3.5" fill="#00796b" stroke="#ffffff" stroke-width="1"/>
<circle cx="185.4" cy="370.0" r="3.5" fill="#00796b" stroke="#ffffff" stroke-width="1"/>
<circle cx="280.8" cy="370.0" r="3.5" fill="#00796b" stroke="#ffffff" stroke-width="1"/>
<circle cx="376.2" cy="370.0" r="3.5" fill="#00796b" stroke="#ffffff" stroke-width="1"/>
<circle cx="471.7" cy="370.0" r="3.5" fill="#00796b" stroke="#ffffff" stroke-width="1"/>
<circle cx="567.1" cy="370.0" r="3.5" fill="#00796b" stroke="#ffffff" stroke-width="1"/>
<circle cx="662.5" cy="370.0" r="3.5" fill="#00796b" stroke="#ffffff" stroke-width="1"/>
<circle cx="757.9" cy="370.0" r="3.5" fill="#00796b" stroke="#ffffff" stroke-width="1"/>
<circle cx="853.3" cy="370.0" r="3.5" fill="#00796b" stroke="#ffffff" stroke-width="1"/>
<circle cx="948.8" cy="369.8" r="3.5" fill="#00796b" stroke="#ffffff" stroke-width="1"/>
<circle cx="1044.2" cy="369.2" r="3.5" fill="#00796b" stroke="#ffffff" stroke-width="1"/>
<circle cx="1139.6" cy="366.5" r="3.5" fill="#00796b" stroke="#ffffff" stroke-width="1"/>
<circle cx="1235.0" cy="354.4" r="3.5" fill="#00796b" stroke="#ffffff" stroke-width="1"/>
<polyline points="90.0,370.0 185.4,370.0 280.8,370.0 376.2,370.0 471.7,370.0 567.1,370.0 662.5,370.0 757.9,370.0 853.3,369.9 948.8,369.8 1044.2,369.1 1139.6,366.2 1235.0,353.1" fill="none" stroke="#d97706" stroke-width="2.5"/>
<circle cx="90.0" cy="370.0" r="3.5" fill="#d97706" stroke="#ffffff" stroke-width="1"/>
<circle cx="185.4" cy="370.0" r="3.5" fill="#d97706" stroke="#ffffff" stroke-width="1"/>
<circle cx="280.8" cy="370.0" r="3.5" fill="#d97706" stroke="#ffffff" stroke-width="1"/>
<circle cx="376.2" cy="370.0" r="3.5" fill="#d97706" stroke="#ffffff" stroke-width="1"/>
<circle cx="471.7" cy="370.0" r="3.5" fill="#d97706" stroke="#ffffff" stroke-width="1"/>
<circle cx="567.1" cy="370.0" r="3.5" fill="#d97706" stroke="#ffffff" stroke-width="1"/>
<circle cx="662.5" cy="370.0" r="3.5" fill="#d97706" stroke="#ffffff" stroke-width="1"/>
<circle cx="757.9" cy="370.0" r="3.5" fill="#d97706" stroke="#ffffff" stroke-width="1"/>
<circle cx="853.3" cy="369.9" r="3.5" fill="#d97706" stroke="#ffffff" stroke-width="1"/>
<circle cx="948.8" cy="369.8" r="3.5" fill="#d97706" stroke="#ffffff" stroke-width="1"/>
<circle cx="1044.2" cy="369.1" r="3.5" fill="#d97706" stroke="#ffffff" stroke-width="1"/>
<circle cx="1139.6" cy="366.2" r="3.5" fill="#d97706" stroke="#ffffff" stroke-width="1"/>
<circle cx="1235.0" cy="353.1" r="3.5" fill="#d97706" stroke="#ffffff" stroke-width="1"/>
<polyline points="90.0,369.9 185.4,369.9 280.8,369.9 376.2,369.9 471.7,369.8 567.1,369.8 662.5,369.8 757.9,369.7 853.3,369.5 948.8,367.7 1044.2,356.5 1139.6,311.0 1235.0,105.2" fill="none" stroke="#6d28d9" stroke-width="2.5" stroke-dasharray="8 5"/>
<circle cx="90.0" cy="369.9" r="3.5" fill="#6d28d9" stroke="#ffffff" stroke-width="1"/>
<circle cx="185.4" cy="369.9" r="3.5" fill="#6d28d9" stroke="#ffffff" stroke-width="1"/>
<circle cx="280.8" cy="369.9" r="3.5" fill="#6d28d9" stroke="#ffffff" stroke-width="1"/>
<circle cx="376.2" cy="369.9" r="3.5" fill="#6d28d9" stroke="#ffffff" stroke-width="1"/>
<circle cx="471.7" cy="369.8" r="3.5" fill="#6d28d9" stroke="#ffffff" stroke-width="1"/>
<circle cx="567.1" cy="369.8" r="3.5" fill="#6d28d9" stroke="#ffffff" stroke-width="1"/>
<circle cx="662.5" cy="369.8" r="3.5" fill="#6d28d9" stroke="#ffffff" stroke-width="1"/>
<circle cx="757.9" cy="369.7" r="3.5" fill="#6d28d9" stroke="#ffffff" stroke-width="1"/>
<circle cx="853.3" cy="369.5" r="3.5" fill="#6d28d9" stroke="#ffffff" stroke-width="1"/>
<circle cx="948.8" cy="367.7" r="3.5" fill="#6d28d9" stroke="#ffffff" stroke-width="1"/>
<circle cx="1044.2" cy="356.5" r="3.5" fill="#6d28d9" stroke="#ffffff" stroke-width="1"/>
<circle cx="1139.6" cy="311.0" r="3.5" fill="#6d28d9" stroke="#ffffff" stroke-width="1"/>
<circle cx="1235.0" cy="105.2" r="3.5" fill="#6d28d9" stroke="#ffffff" stroke-width="1"/>
<polyline points="90.0,370.0 185.4,370.0 280.8,370.0 376.2,370.0 471.7,370.0 567.1,369.9 662.5,369.8 757.9,369.2 853.3,366.7 948.8,365.2 1044.2,356.6 1139.6,322.4 1235.0,173.7" fill="none" stroke="#2563eb" stroke-width="2.5" stroke-dasharray="8 5"/>
<circle cx="90.0" cy="370.0" r="3.5" fill="#2563eb" stroke="#ffffff" stroke-width="1"/>
<circle cx="185.4" cy="370.0" r="3.5" fill="#2563eb" stroke="#ffffff" stroke-width="1"/>
<circle cx="280.8" cy="370.0" r="3.5" fill="#2563eb" stroke="#ffffff" stroke-width="1"/>
<circle cx="376.2" cy="370.0" r="3.5" fill="#2563eb" stroke="#ffffff" stroke-width="1"/>
<circle cx="471.7" cy="370.0" r="3.5" fill="#2563eb" stroke="#ffffff" stroke-width="1"/>
<circle cx="567.1" cy="369.9" r="3.5" fill="#2563eb" stroke="#ffffff" stroke-width="1"/>
<circle cx="662.5" cy="369.8" r="3.5" fill="#2563eb" stroke="#ffffff" stroke-width="1"/>
<circle cx="757.9" cy="369.2" r="3.5" fill="#2563eb" stroke="#ffffff" stroke-width="1"/>
<circle cx="853.3" cy="366.7" r="3.5" fill="#2563eb" stroke="#ffffff" stroke-width="1"/>
<circle cx="948.8" cy="365.2" r="3.5" fill="#2563eb" stroke="#ffffff" stroke-width="1"/>
<circle cx="1044.2" cy="356.6" r="3.5" fill="#2563eb" stroke="#ffffff" stroke-width="1"/>
<circle cx="1139.6" cy="322.4" r="3.5" fill="#2563eb" stroke="#ffffff" stroke-width="1"/>
<circle cx="1235.0" cy="173.7" r="3.5" fill="#2563eb" stroke="#ffffff" stroke-width="1"/>
<line x1="90.0" y1="422" x2="120.0" y2="422" stroke="#00796b" stroke-width="3"/>
<text x="128.0" y="427.0" font-size="13" fill="#303841">SAD fastest</text>
<line x1="376.2" y1="422" x2="406.2" y2="422" stroke="#d97706" stroke-width="3"/>
<text x="414.2" y="427.0" font-size="13" fill="#303841">SAD average</text>
<line x1="662.5" y1="422" x2="692.5" y2="422" stroke="#6d28d9" stroke-width="3" stroke-dasharray="8 5"/>
<text x="700.5" y="427.0" font-size="13" fill="#303841">PennyLane</text>
<line x1="948.8" y1="422" x2="978.8" y2="422" stroke="#2563eb" stroke-width="3" stroke-dasharray="8 5"/>
<text x="986.8" y="427.0" font-size="13" fill="#303841">cuQuantum</text>
<text x="90.0" y="434.0" font-size="16" font-weight="700" fill="#20262d">Speedup</text>
<rect x="90" y="448" width="1145" height="242" fill="#ffffff"/>
<line x1="90" y1="690.0" x2="1235" y2="690.0" stroke="#d9dee5"/>
<text x="78.0" y="695.0" text-anchor="end" font-size="13" fill="#52606d">0</text>
<line x1="90" y1="641.6" x2="1235" y2="641.6" stroke="#d9dee5"/>
<text x="78.0" y="646.6" text-anchor="end" font-size="13" fill="#52606d">16.3</text>
<line x1="90" y1="593.2" x2="1235" y2="593.2" stroke="#d9dee5"/>
<text x="78.0" y="598.2" text-anchor="end" font-size="13" fill="#52606d">32.7</text>
<line x1="90" y1="544.8" x2="1235" y2="544.8" stroke="#d9dee5"/>
<text x="78.0" y="549.8" text-anchor="end" font-size="13" fill="#52606d">49.0</text>
<line x1="90" y1="496.4" x2="1235" y2="496.4" stroke="#d9dee5"/>
<text x="78.0" y="501.4" text-anchor="end" font-size="13" fill="#52606d">65.4</text>
<line x1="90" y1="448.0" x2="1235" y2="448.0" stroke="#d9dee5"/>
<text x="78.0" y="453.0" text-anchor="end" font-size="13" fill="#52606d">81.7</text>
<line x1="90.0" y1="448" x2="90.0" y2="690" stroke="#eef1f4"/>
<text x="90.0" y="714.0" text-anchor="middle" font-size="13" fill="#52606d">4</text>
<line x1="185.4" y1="448" x2="185.4" y2="690" stroke="#eef1f4"/>
<text x="185.4" y="714.0" text-anchor="middle" font-size="13" fill="#52606d">6</text>
<line x1="280.8" y1="448" x2="280.8" y2="690" stroke="#eef1f4"/>
<text x="280.8" y="714.0" text-anchor="middle" font-size="13" fill="#52606d">8</text>
<line x1="376.2" y1="448" x2="376.2" y2="690" stroke="#eef1f4"/>
<text x="376.2" y="714.0" text-anchor="middle" font-size="13" fill="#52606d">10</text>
<line x1="471.7" y1="448" x2="471.7" y2="690" stroke="#eef1f4"/>
<text x="471.7" y="714.0" text-anchor="middle" font-size="13" fill="#52606d">12</text>
<line x1="567.1" y1="448" x2="567.1" y2="690" stroke="#eef1f4"/>
<text x="567.1" y="714.0" text-anchor="middle" font-size="13" fill="#52606d">14</text>
<line x1="662.5" y1="448" x2="662.5" y2="690" stroke="#eef1f4"/>
<text x="662.5" y="714.0" text-anchor="middle" font-size="13" fill="#52606d">16</text>
<line x1="757.9" y1="448" x2="757.9" y2="690" stroke="#eef1f4"/>
<text x="757.9" y="714.0" text-anchor="middle" font-size="13" fill="#52606d">18</text>
<line x1="853.3" y1="448" x2="853.3" y2="690" stroke="#eef1f4"/>
<text x="853.3" y="714.0" text-anchor="middle" font-size="13" fill="#52606d">20</text>
<line x1="948.8" y1="448" x2="948.8" y2="690" stroke="#eef1f4"/>
<text x="948.8" y="714.0" text-anchor="middle" font-size="13" fill="#52606d">22</text>
<line x1="1044.2" y1="448" x2="1044.2" y2="690" stroke="#eef1f4"/>
<text x="1044.2" y="714.0" text-anchor="middle" font-size="13" fill="#52606d">24</text>
<line x1="1139.6" y1="448" x2="1139.6" y2="690" stroke="#eef1f4"/>
<text x="1139.6" y="714.0" text-anchor="middle" font-size="13" fill="#52606d">26</text>
<line x1="1235.0" y1="448" x2="1235.0" y2="690" stroke="#eef1f4"/>
<text x="1235.0" y="714.0" text-anchor="middle" font-size="13" fill="#52606d">28</text>
<line x1="90" y1="448" x2="90" y2="690" stroke="#3d4752" stroke-width="1.5"/>
<line x1="90" y1="690" x2="1235" y2="690" stroke="#3d4752" stroke-width="1.5"/>
<text x="25.0" y="569.0" text-anchor="middle" font-size="14" fill="#20262d" transform="rotate(-90 25 569.0)">Speedup (x)</text>
<polyline points="90.0,473.4 185.4,459.5 280.8,473.2 376.2,491.7 471.7,484.0 567.1,485.7 662.5,553.5 757.9,624.7 853.3,658.5 948.8,653.3 1044.2,640.2 1139.6,639.6 1235.0,639.8" fill="none" stroke="#6d28d9" stroke-width="2.5"/>
<circle cx="90.0" cy="473.4" r="3.5" fill="#6d28d9" stroke="#ffffff" stroke-width="1"/>
<circle cx="185.4" cy="459.5" r="3.5" fill="#6d28d9" stroke="#ffffff" stroke-width="1"/>
<circle cx="280.8" cy="473.2" r="3.5" fill="#6d28d9" stroke="#ffffff" stroke-width="1"/>
<circle cx="376.2" cy="491.7" r="3.5" fill="#6d28d9" stroke="#ffffff" stroke-width="1"/>
<circle cx="471.7" cy="484.0" r="3.5" fill="#6d28d9" stroke="#ffffff" stroke-width="1"/>
<circle cx="567.1" cy="485.7" r="3.5" fill="#6d28d9" stroke="#ffffff" stroke-width="1"/>
<circle cx="662.5" cy="553.5" r="3.5" fill="#6d28d9" stroke="#ffffff" stroke-width="1"/>
<circle cx="757.9" cy="624.7" r="3.5" fill="#6d28d9" stroke="#ffffff" stroke-width="1"/>
<circle cx="853.3" cy="658.5" r="3.5" fill="#6d28d9" stroke="#ffffff" stroke-width="1"/>
<circle cx="948.8" cy="653.3" r="3.5" fill="#6d28d9" stroke="#ffffff" stroke-width="1"/>
<circle cx="1044.2" cy="640.2" r="3.5" fill="#6d28d9" stroke="#ffffff" stroke-width="1"/>
<circle cx="1139.6" cy="639.6" r="3.5" fill="#6d28d9" stroke="#ffffff" stroke-width="1"/>
<circle cx="1235.0" cy="639.8" r="3.5" fill="#6d28d9" stroke="#ffffff" stroke-width="1"/>
<polyline points="90.0,518.5 185.4,521.4 280.8,522.3 376.2,539.6 471.7,544.9 567.1,549.6 662.5,582.3 757.9,629.8 853.3,662.0 948.8,656.0 1044.2,643.2 1139.6,643.5 1235.0,643.6" fill="none" stroke="#c026d3" stroke-width="2.5" stroke-dasharray="7 4"/>
<circle cx="90.0" cy="518.5" r="3.5" fill="#c026d3" stroke="#ffffff" stroke-width="1"/>
<circle cx="185.4" cy="521.4" r="3.5" fill="#c026d3" stroke="#ffffff" stroke-width="1"/>
<circle cx="280.8" cy="522.3" r="3.5" fill="#c026d3" stroke="#ffffff" stroke-width="1"/>
<circle cx="376.2" cy="539.6" r="3.5" fill="#c026d3" stroke="#ffffff" stroke-width="1"/>
<circle cx="471.7" cy="544.9" r="3.5" fill="#c026d3" stroke="#ffffff" stroke-width="1"/>
<circle cx="567.1" cy="549.6" r="3.5" fill="#c026d3" stroke="#ffffff" stroke-width="1"/>
<circle cx="662.5" cy="582.3" r="3.5" fill="#c026d3" stroke="#ffffff" stroke-width="1"/>
<circle cx="757.9" cy="629.8" r="3.5" fill="#c026d3" stroke="#ffffff" stroke-width="1"/>
<circle cx="853.3" cy="662.0" r="3.5" fill="#c026d3" stroke="#ffffff" stroke-width="1"/>
<circle cx="948.8" cy="656.0" r="3.5" fill="#c026d3" stroke="#ffffff" stroke-width="1"/>
<circle cx="1044.2" cy="643.2" r="3.5" fill="#c026d3" stroke="#ffffff" stroke-width="1"/>
<circle cx="1139.6" cy="643.5" r="3.5" fill="#c026d3" stroke="#ffffff" stroke-width="1"/>
<circle cx="1235.0" cy="643.6" r="3.5" fill="#c026d3" stroke="#ffffff" stroke-width="1"/>
<polyline points="90.0,640.5 185.4,644.4 280.8,648.9 376.2,652.7 471.7,646.5 567.1,619.4 662.5,571.9 757.9,520.1 853.3,470.9 948.8,612.4 1044.2,640.6 1139.6,649.3 1235.0,652.8" fill="none" stroke="#2563eb" stroke-width="2.5"/>
<circle cx="90.0" cy="640.5" r="3.5" fill="#2563eb" stroke="#ffffff" stroke-width="1"/>
<circle cx="185.4" cy="644.4" r="3.5" fill="#2563eb" stroke="#ffffff" stroke-width="1"/>
<circle cx="280.8" cy="648.9" r="3.5" fill="#2563eb" stroke="#ffffff" stroke-width="1"/>
<circle cx="376.2" cy="652.7" r="3.5" fill="#2563eb" stroke="#ffffff" stroke-width="1"/>
<circle cx="471.7" cy="646.5" r="3.5" fill="#2563eb" stroke="#ffffff" stroke-width="1"/>
<circle cx="567.1" cy="619.4" r="3.5" fill="#2563eb" stroke="#ffffff" stroke-width="1"/>
<circle cx="662.5" cy="571.9" r="3.5" fill="#2563eb" stroke="#ffffff" stroke-width="1"/>
<circle cx="757.9" cy="520.1" r="3.5" fill="#2563eb" stroke="#ffffff" stroke-width="1"/>
<circle cx="853.3" cy="470.9" r="3.5" fill="#2563eb" stroke="#ffffff" stroke-width="1"/>
<circle cx="948.8" cy="612.4" r="3.5" fill="#2563eb" stroke="#ffffff" stroke-width="1"/>
<circle cx="1044.2" cy="640.6" r="3.5" fill="#2563eb" stroke="#ffffff" stroke-width="1"/>
<circle cx="1139.6" cy="649.3" r="3.5" fill="#2563eb" stroke="#ffffff" stroke-width="1"/>
<circle cx="1235.0" cy="652.8" r="3.5" fill="#2563eb" stroke="#ffffff" stroke-width="1"/>
<polyline points="90.0,650.8 185.4,656.7 280.8,658.2 376.2,661.7 471.7,659.3 567.1,641.5 662.5,596.8 757.9,533.3 853.3,494.9 948.8,618.3 1044.2,643.6 1139.6,652.4 1235.0,655.6" fill="none" stroke="#0891b2" stroke-width="2.5" stroke-dasharray="7 4"/>
<circle cx="90.0" cy="650.8" r="3.5" fill="#0891b2" stroke="#ffffff" stroke-width="1"/>
<circle cx="185.4" cy="656.7" r="3.5" fill="#0891b2" stroke="#ffffff" stroke-width="1"/>
<circle cx="280.8" cy="658.2" r="3.5" fill="#0891b2" stroke="#ffffff" stroke-width="1"/>
<circle cx="376.2" cy="661.7" r="3.5" fill="#0891b2" stroke="#ffffff" stroke-width="1"/>
<circle cx="471.7" cy="659.3" r="3.5" fill="#0891b2" stroke="#ffffff" stroke-width="1"/>
<circle cx="567.1" cy="641.5" r="3.5" fill="#0891b2" stroke="#ffffff" stroke-width="1"/>
<circle cx="662.5" cy="596.8" r="3.5" fill="#0891b2" stroke="#ffffff" stroke-width="1"/>
<circle cx="757.9" cy="533.3" r="3.5" fill="#0891b2" stroke="#ffffff" stroke-width="1"/>
<circle cx="853.3" cy="494.9" r="3.5" fill="#0891b2" stroke="#ffffff" stroke-width="1"/>
<circle cx="948.8" cy="618.3" r="3.5" fill="#0891b2" stroke="#ffffff" stroke-width="1"/>
<circle cx="1044.2" cy="643.6" r="3.5" fill="#0891b2" stroke="#ffffff" stroke-width="1"/>
<circle cx="1139.6" cy="652.4" r="3.5" fill="#0891b2" stroke="#ffffff" stroke-width="1"/>
<circle cx="1235.0" cy="655.6" r="3.5" fill="#0891b2" stroke="#ffffff" stroke-width="1"/>
<line x1="90" y1="687.0" x2="1235" y2="687.0" stroke="#7b8794" stroke-width="1.5" stroke-dasharray="3 4"/>
<line x1="90.0" y1="726" x2="120.0" y2="726" stroke="#6d28d9" stroke-width="3"/>
<text x="128.0" y="731.0" font-size="13" fill="#303841">PL / SAD fastest</text>
<line x1="376.2" y1="726" x2="406.2" y2="726" stroke="#c026d3" stroke-width="3" stroke-dasharray="7 4"/>
<text x="414.2" y="731.0" font-size="13" fill="#303841">PL / SAD average</text>
<line x1="662.5" y1="726" x2="692.5" y2="726" stroke="#2563eb" stroke-width="3"/>
<text x="700.5" y="731.0" font-size="13" fill="#303841">cuQ / SAD fastest</text>
<line x1="948.8" y1="726" x2="978.8" y2="726" stroke="#0891b2" stroke-width="3" stroke-dasharray="7 4"/>
<text x="986.8" y="731.0" font-size="13" fill="#303841">cuQ / SAD average</text>
<text x="662.5" y="752.0" text-anchor="middle" font-size="14" fill="#20262d">Qubits</text>
</svg>
