<svg xmlns="http://www.w3.org/2000/svg" width="1280" height="760" viewBox="0 0 1280 760">
<rect width="100%" height="100%" fill="#f7f8fa"/>
<text x="90.0" y="36.0" font-size="24" font-weight="700" fill="#171b20">XXV-HEV-BD parameter-search performance</text>
<text x="90.0" y="62.0" font-size="14" fill="#5d6772">Absolute runtime and speedup across qubit counts</text>
<text x="90.0" y="78.0" font-size="16" font-weight="700" fill="#20262d">Absolute time</text>
<rect x="90" y="92" width="1145" height="278" fill="#ffffff"/>
<line x1="90" y1="370.0" x2="1235" y2="370.0" stroke="#d9dee5"/>
<text x="78.0" y="375.0" text-anchor="end" font-size="13" fill="#52606d">0</text>
<line x1="90" y1="314.4" x2="1235" y2="314.4" stroke="#d9dee5"/>
<text x="78.0" y="319.4" text-anchor="end" font-size="13" fill="#52606d">37754</text>
<line x1="90" y1="258.8" x2="1235" y2="258.8" stroke="#d9dee5"/>
<text x="78.0" y="263.8" text-anchor="end" font-size="13" fill="#52606d">75508</text>
<line x1="90" y1="203.2" x2="1235" y2="203.2" stroke="#d9dee5"/>
<text x="78.0" y="208.2" text-anchor="end" font-size="13" fill="#52606d">113263</text>
<line x1="90" y1="147.6" x2="1235" y2="147.6" stroke="#d9dee5"/>
<text x="78.0" y="152.6" text-anchor="end" font-size="13" fill="#52606d">151017</text>
<line x1="90" y1="92.0" x2="1235" y2="92.0" stroke="#d9dee5"/>
<text x="78.0" y="97.0" text-anchor="end" font-size="13" fill="#52606d">188771</text>
<line x1="90.0" y1="92" x2="90.0" y2="370" stroke="#eef1f4"/>
<text x="90.0" y="394.0" text-anchor="middle" font-size="13" fill="#52606d">4</text>
<line x1="185.4" y1="92" x2="185.4" y2="370" stroke="#eef1f4"/>
<text x="185.4" y="394.0" text-anchor="middle" font-size="13" fill="#52606d">6</text>
<line x1="280.8" y1="92" x2="280.8" y2="370" stroke="#eef1f4"/>
<text x="280.8" y="394.0" text-anchor="middle" font-size="13" fill="#52606d">8</text>
<line x1="376.2" y1="92" x2="376.2" y2="370" stroke="#eef1f4"/>
<text x="376.2" y="394.0" text-anchor="middle" font-size="13" fill="#52606d">10</text>
<line x1="471.7" y1="92" x2="471.7" y2="370" stroke="#eef1f4"/>
<text x="471.7" y="394.0" text-anchor="middle" font-size="13" fill="#52606d">12</text>
<line x1="567.1" y1="92" x2="567.1" y2="370" stroke="#eef1f4"/>
<text x="567.1" y="394.0" text-anchor="middle" font-size="13" fill="#52606d">14</text>
<line x1="662.5" y1="92" x2="662.5" y2="370" stroke="#eef1f4"/>
<text x="662.5" y="394.0" text-anchor="middle" font-size="13" fill="#52606d">16</text>
<line x1="757.9" y1="92" x2="757.9" y2="370" stroke="#eef1f4"/>
<text x="757.9" y="394.0" text-anchor="middle" font-size="13" fill="#52606d">18</text>
<line x1="853.3" y1="92" x2="853.3" y2="370" stroke="#eef1f4"/>
<text x="853.3" y="394.0" text-anchor="middle" font-size="13" fill="#52606d">20</text>
<line x1="948.8" y1="92" x2="948.8" y2="370" stroke="#eef1f4"/>
<text x="948.8" y="394.0" text-anchor="middle" font-size="13" fill="#52606d">22</text>
<line x1="1044.2" y1="92" x2="1044.2" y2="370" stroke="#eef1f4"/>
<text x="1044.2" y="394.0" text-anchor="middle" font-size="13" fill="#52606d">24</text>
<line x1="1139.6" y1="92" x2="1139.6" y2="370" stroke="#eef1f4"/>
<text x="1139.6" y="394.0" text-anchor="middle" font-size="13" fill="#52606d">26</text>
<line x1="1235.0" y1="92" x2="1235.0" y2="370" stroke="#eef1f4"/>
<text x="1235.0" y="394.0" text-anchor="middle" font-size="13" fill="#52606d">28</text>
<line x1="90" y1="92" x2="90" y2="370" stroke="#3d4752" stroke-width="1.5"/>
<line x1="90" y1="370" x2="1235" y2="370" stroke="#3d4752" stroke-width="1.5"/>
<text x="25.0" y="231.0" text-anchor="middle" font-size="14" fill="#20262d" transform="rotate(-90 25 231.0)">Time (ms)</text>
<polyline points="90.0,370.0 185.4,370.0 280.8,370.0 376.2,370.0 471.7,370.0 567.1,370.0 662.5,370.0 757.9,370.0 853.3,370.0 948.8,369.9 1044.2,369.6 1139.6,368.3 1235.0,362.4" fill="none" stroke="#00796b" stroke-width="2.5"/>
<circle cx="90.0" cy="370.0" r="3.5" fill="#00796b" stroke="#ffffff" stroke-width="1"/>
<circle cx="185.4" cy="370.0" r="3.5" fill="#00796b" stroke="#ffffff" stroke-width="1"/>
<circle cx="280.8" cy="370.0" r="3.5" fill="#00796b" stroke="#ffffff" stroke-width="1"/>
<circle cx="376.2" cy="370.0" r="3.5" fill="#00796b" stroke="#ffffff" stroke-width="1"/>
<circle cx="471.7" cy="370.0" r="3.5" fill="#00796b" stroke="#ffffff" stroke-width="1"/>
<circle cx="567.1" cy="370.0" r="3.5" fill="#00796b" stroke="#ffffff" stroke-width="1"/>
<circle cx="662.5" cy="370.0" r="3.5" fill="#00796b" stroke="#ffffff" stroke-width="1"/>
<circle cx="757.9" cy="370.0" r="3.5" fill="#00796b" stroke="#ffffff" stroke-width="1"/>
<circle cx="853.3" cy="370.0" r="3.5" fill="#00796b" stroke="#ffffff" stroke-width="1"/>
<circle cx="948.8" cy="369.9" r="3.5" fill="#00796b" stroke="#ffffff" stroke-width="1"/>
<circle cx="1044.2" cy="369.6" r="3.5" fill="#00796b" stroke="#ffffff" stroke-width="1"/>
<circle cx="1139.6" cy="368.3" r="3.5" fill="#00796b" stroke="#ffffff" stroke-width="1"/>
<circle cx="1235.0" cy="362.4" r="3.5" fill="#00796b" stroke="#ffffff" stroke-width="1"/>
<polyline points="90.0,370.0 185.4,370.0 280.8,370.0 376.2,370.0 471.7,370.0 567.1,370.0 662.5,370.0 757.9,370.0 853.3,370.0 948.8,369.9 1044.2,369.6 1139.6,368.0 1235.0,361.5" fill="none" stroke="#d97706" stroke-width="2.5"/>
<circle cx="90.0" cy="370.0" r="3.5" fill="#d97706" stroke="#ffffff" stroke-width="1"/>
<circle cx="185.4" cy="370.0" r="3.5" fill="#d97706" stroke="#ffffff" stroke-width="1"/>
<circle cx="280.8" cy="370.0" r="3.5" fill="#d97706" stroke="#ffffff" stroke-width="1"/>
<circle cx="376.2" cy="370.0" r="3.5" fill="#d97706" stroke="#ffffff" stroke-width="1"/>
<circle cx="471.7" cy="370.0" r="3.5" fill="#d97706" stroke="#ffffff" stroke-width="1"/>
<circle cx="567.1" cy="370.0" r="3.5" fill="#d97706" stroke="#ffffff" stroke-width="1"/>
<circle cx="662.5" cy="370.0" r="3.5" fill="#d97706" stroke="#ffffff" stroke-width="1"/>
<circle cx="757.9" cy="370.0" r="3.5" fill="#d97706" stroke="#ffffff" stroke-width="1"/>
<circle cx="853.3" cy="370.0" r="3.5" fill="#d97706" stroke="#ffffff" stroke-width="1"/>
<circle cx="948.8" cy="369.9" r="3.5" fill="#d97706" stroke="#ffffff" stroke-width="1"/>
<circle cx="1044.2" cy="369.6" r="3.5" fill="#d97706" stroke="#ffffff" stroke-width="1"/>
<circle cx="1139.6" cy="368.0" r="3.5" fill="#d97706" stroke="#ffffff" stroke-width="1"/>
<circle cx="1235.0" cy="361.5" r="3.5" fill="#d97706" stroke="#ffffff" stroke-width="1"/>
<polyline points="90.0,370.0 185.4,369.9 280.8,369.9 376.2,369.9 471.7,369.9 567.1,369.9 662.5,369.8 757.9,369.8 853.3,369.6 948.8,368.1 1044.2,359.3 1139.6,323.0 1235.0,168.0" fill="none" stroke="#6d28d9" stroke-width="2.5" stroke-dasharray="8 5"/>
<circle cx="90.0" cy="370.0" r="3.5" fill="#6d28d9" stroke="#ffffff" stroke-width="1"/>
<circle cx="185.4" cy="369.9" r="3.5" fill="#6d28d9" stroke="#ffffff" stroke-width="1"/>
<circle cx="280.8" cy="369.9" r="3.5" fill="#6d28d9" stroke="#ffffff" stroke-width="1"/>
<circle cx="376.2" cy="369.9" r="3.5" fill="#6d28d9" stroke="#ffffff" stroke-width="1"/>
<circle cx="471.7" cy="369.9" r="3.5" fill="#6d28d9" stroke="#ffffff" stroke-width="1"/>
<circle cx="567.1" cy="369.9" r="3.5" fill="#6d28d9" stroke="#ffffff" stroke-width="1"/>
<circle cx="662.5" cy="369.8" r="3.5" fill="#6d28d9" stroke="#ffffff" stroke-width="1"/>
<circle cx="757.9" cy="369.8" r="3.5" fill="#6d28d9" stroke="#ffffff" stroke-width="1"/>
<circle cx="853.3" cy="369.6" r="3.5" fill="#6d28d9" stroke="#ffffff" stroke-width="1"/>
<circle cx="948.8" cy="368.1" r="3.5" fill="#6d28d9" stroke="#ffffff" stroke-width="1"/>
<circle cx="1044.2" cy="359.3" r="3.5" fill="#6d28d9" stroke="#ffffff" stroke-width="1"/>
<circle cx="1139.6" cy="323.0" r="3.5" fill="#6d28d9" stroke="#ffffff" stroke-width="1"/>
<circle cx="1235.0" cy="168.0" r="3.5" fill="#6d28d9" stroke="#ffffff" stroke-width="1"/>
<polyline points="90.0,370.0 185.4,370.0 280.8,370.0 376.2,370.0 471.7,370.0 567.1,370.0 662.5,369.9 757.9,369.7 853.3,368.7 948.8,366.5 1044.2,354.8 1139.6,307.7 1235.0,105.2" fill="none" stroke="#2563eb" stroke-width="2.5" stroke-dasharray="8 5"/>
<circle cx="90.0" cy="370.0" r="3.5" fill="#2563eb" stroke="#ffffff" stroke-width="1"/>
<circle cx="185.4" cy="370.0" r="3.5" fill="#2563eb" stroke="#ffffff" stroke-width="1"/>
<circle cx="280.8" cy="370.0" r="3.5" fill="#2563eb" stroke="#ffffff" stroke-width="1"/>
<circle cx="376.2" cy="370.0" r="3.5" fill="#2563eb" stroke="#ffffff" stroke-width="1"/>
<circle cx="471.7" cy="370.0" r="3.5" fill="#2563eb" stroke="#ffffff" stroke-width="1"/>
<circle cx="567.1" cy="370.0" r="3.5" fill="#2563eb" stroke="#ffffff" stroke-width="1"/>
<circle cx="662.5" cy="369.9" r="3.5" fill="#2563eb" stroke="#ffffff" stroke-width="1"/>
<circle cx="757.9" cy="369.7" r="3.5" fill="#2563eb" stroke="#ffffff" stroke-width="1"/>
<circle cx="853.3" cy="368.7" r="3.5" fill="#2563eb" stroke="#ffffff" stroke-width="1"/>
<circle cx="948.8" cy="366.5" r="3.5" fill="#2563eb" stroke="#ffffff" stroke-width="1"/>
<circle cx="1044.2" cy="354.8" r="3.5" fill="#2563eb" stroke="#ffffff" stroke-width="1"/>
<circle cx="1139.6" cy="307.7" r="3.5" fill="#2563eb" stroke="#ffffff" stroke-width="1"/>
<circle cx="1235.0" cy="105.2" r="3.5" fill="#2563eb" stroke="#ffffff" stroke-width="1"/>
<line x1="90.0" y1="422" x2="120.0" y2="422" stroke="#00796b" stroke-width="3"/>
<text x="128.0" y="427.0" font-size="13" fill="#303841">SAD fastest</text>
<line x1="376.2" y1="422" x2="406.2" y2="422" stroke="#d97706" stroke-width="3"/>
<text x="414.2" y="427.0" font-size="13" fill="#303841">SAD average</text>
<line x1="662.5" y1="422" x2="692.5" y2="422" stroke="#6d28d9" stroke-width="3" stroke-dasharray="8 5"/>
<text x="700.5" y="427.0" font-size="13" fill="#303841">PennyLane</text>
<line x1="948.8" y1="422" x2="978.8" y2="422" stroke="#2563eb" stroke-width="3" stroke-dasharray="8 5"/>
<text x="986.8" y="427.0" font-size="13" fill="#303841">cuQuantum</text>
<text x="90.0" y="434.0" font-size="16" font-weight="700" fill="#20262d">Speedup</text>
<rect x="90" y="448" width="1145" height="242" fill="#ffffff"/>
<line x1="90" y1="690.0" x2="1235" y2="690.0" stroke="#d9dee5"/>
<text x="78.0" y="695.0" text-anchor="end" font-size="13" fill="#52606d">0</text>
<line x1="90" y1="641.6" x2="1235" y2="641.6" stroke="#d9dee5"/>
<text x="78.0" y="646.6" text-anchor="end" font-size="13" fill="#52606d">32.7</text>
<line x1="90" y1="593.2" x2="1235" y2="593.2" stroke="#d9dee5"/>
<text x="78.0" y="598.2" text-anchor="end" font-size="13" fill="#52606d">65.4</text>
<line x1="90" y1="544.8" x2="1235" y2="544.8" stroke="#d9dee5"/>
<text x="78.0" y="549.8" text-anchor="end" font-size="13" fill="#52606d">98.1</text>
<line x1="90" y1="496.4" x2="1235" y2="496.4" stroke="#d9dee5"/>
<text x="78.0" y="501.4" text-anchor="end" font-size="13" fill="#52606d">130.8</text>
<line x1="90" y1="448.0" x2="1235" y2="448.0" stroke="#d9dee5"/>
<text x="78.0" y="453.0" text-anchor="end" font-size="13" fill="#52606d">163.5</text>
<line x1="90.0" y1="448" x2="90.0" y2="690" stroke="#eef1f4"/>
<text x="90.0" y="714.0" text-anchor="middle" font-size="13" fill="#52606d">4</text>
<line x1="185.4" y1="448" x2="185.4" y2="690" stroke="#eef1f4"/>
<text x="185.4" y="714.0" text-anchor="middle" font-size="13" fill="#52606d">6</text>
<line x1="280.8" y1="448" x2="280.8" y2="690" stroke="#eef1f4"/>
<text x="280.8" y="714.0" text-anchor="middle" font-size="13" fill="#52606d">8</text>
<line x1="376.2" y1="448" x2="376.2" y2="690" stroke="#eef1f4"/>
<text x="376.2" y="714.0" text-anchor="middle" font-size="13" fill="#52606d">10</text>
<line x1="471.7" y1="448" x2="471.7" y2="690" stroke="#eef1f4"/>
<text x="471.7" y="714.0" text-anchor="middle" font-size="13" fill="#52606d">12</text>
<line x1="567.1" y1="448" x2="567.1" y2="690" stroke="#eef1f4"/>
<text x="567.1" y="714.0" text-anchor="middle" font-size="13" fill="#52606d">14</text>
<line x1="662.5" y1="448" x2="662.5" y2="690" stroke="#eef1f4"/>
<text x="662.5" y="714.0" text-anchor="middle" font-size="13" fill="#52606d">16</text>
<line x1="757.9" y1="448" x2="757.9" y2="690" stroke="#eef1f4"/>
<text x="757.9" y="714.0" text-anchor="middle" font-size="13" fill="#52606d">18</text>
<line x1="853.3" y1="448" x2="853.3" y2="690" stroke="#eef1f4"/>
<text x="853.3" y="714.0" text-anchor="middle" font-size="13" fill="#52606d">20</text>
<line x1="948.8" y1="448" x2="948.8" y2="690" stroke="#eef1f4"/>
<text x="948.8" y="714.0" text-anchor="middle" font-size="13" fill="#52606d">22</text>
<line x1="1044.2" y1="448" x2="1044.2" y2="690" stroke="#eef1f4"/>
<text x="1044.2" y="714.0" text-anchor="middle" font-size="13" fill="#52606d">24</text>
<line x1="1139.6" y1="448" x2="1139.6" y2="690" stroke="#eef1f4"/>
<text x="1139.6" y="714.0" text-anchor="middle" font-size="13" fill="#52606d">26</text>
<line x1="1235.0" y1="448" x2="1235.0" y2="690" stroke="#eef1f4"/>
<text x="1235.0" y="714.0" text-anchor="middle" font-size="13" fill="#52606d">28</text>
<line x1="90" y1="448" x2="90" y2="690" stroke="#3d4752" stroke-width="1.5"/>
<line x1="90" y1="690" x2="1235" y2="690" stroke="#3d4752" stroke-width="1.5"/>
<text x="25.0" y="569.0" text-anchor="middle" font-size="14" fill="#20262d" transform="rotate(-90 25 569.0)">Speedup (x)</text>
<polyline points="90.0,466.6 185.4,459.5 280.8,515.6 376.2,506.7 471.7,500.1 567.1,514.7 662.5,566.0 757.9,638.3 853.3,666.6 948.8,659.7 1044.2,650.1 1139.6,650.2 1235.0,650.6" fill="none" stroke="#6d28d9" stroke-width="2.5"/>
<circle cx="90.0" cy="466.6" r="3.5" fill="#6d28d9" stroke="#ffffff" stroke-width="1"/>
<circle cx="185.4" cy="459.5" r="3.5" fill="#6d28d9" stroke="#ffffff" stroke-width="1"/>
<circle cx="280.8" cy="515.6" r="3.5" fill="#6d28d9" stroke="#ffffff" stroke-width="1"/>
<circle cx="376.2" cy="506.7" r="3.5" fill="#6d28d9" stroke="#ffffff" stroke-width="1"/>
<circle cx="471.7" cy="500.1" r="3.5" fill="#6d28d9" stroke="#ffffff" stroke-width="1"/>
<circle cx="567.1" cy="514.7" r="3.5" fill="#6d28d9" stroke="#ffffff" stroke-width="1"/>
<circle cx="662.5" cy="566.0" r="3.5" fill="#6d28d9" stroke="#ffffff" stroke-width="1"/>
<circle cx="757.9" cy="638.3" r="3.5" fill="#6d28d9" stroke="#ffffff" stroke-width="1"/>
<circle cx="853.3" cy="666.6" r="3.5" fill="#6d28d9" stroke="#ffffff" stroke-width="1"/>
<circle cx="948.8" cy="659.7" r="3.5" fill="#6d28d9" stroke="#ffffff" stroke-width="1"/>
<circle cx="1044.2" cy="650.1" r="3.5" fill="#6d28d9" stroke="#ffffff" stroke-width="1"/>
<circle cx="1139.6" cy="650.2" r="3.5" fill="#6d28d9" stroke="#ffffff" stroke-width="1"/>
<circle cx="1235.0" cy="650.6" r="3.5" fill="#6d28d9" stroke="#ffffff" stroke-width="1"/>
<polyline points="90.0,490.1 185.4,486.3 280.8,526.6 376.2,567.5 471.7,568.2 567.1,566.5 662.5,580.3 757.9,642.5 853.3,667.7 948.8,661.9 1044.2,654.7 1139.6,654.8 1235.0,654.8" fill="none" stroke="#c026d3" stroke-width="2.5" stroke-dasharray="7 4"/>
<circle cx="90.0" cy="490.1" r="3.5" fill="#c026d3" stroke="#ffffff" stroke-width="1"/>
<circle cx="185.4" cy="486.3" r="3.5" fill="#c026d3" stroke="#ffffff" stroke-width="1"/>
<circle cx="280.8" cy="526.6" r="3.5" fill="#c026d3" stroke="#ffffff" stroke-width="1"/>
<circle cx="376.2" cy="567.5" r="3.5" fill="#c026d3" stroke="#ffffff" stroke-width="1"/>
<circle cx="471.7" cy="568.2" r="3.5" fill="#c026d3" stroke="#ffffff" stroke-width="1"/>
<circle cx="567.1" cy="566.5" r="3.5" fill="#c026d3" stroke="#ffffff" stroke-width="1"/>
<circle cx="662.5" cy="580.3" r="3.5" fill="#c026d3" stroke="#ffffff" stroke-width="1"/>
<circle cx="757.9" cy="642.5" r="3.5" fill="#c026d3" stroke="#ffffff" stroke-width="1"/>
<circle cx="853.3" cy="667.7" r="3.5" fill="#c026d3" stroke="#ffffff" stroke-width="1"/>
<circle cx="948.8" cy="661.9" r="3.5" fill="#c026d3" stroke="#ffffff" stroke-width="1"/>
<circle cx="1044.2" cy="654.7" r="3.5" fill="#c026d3" stroke="#ffffff" stroke-width="1"/>
<circle cx="1139.6" cy="654.8" r="3.5" fill="#c026d3" stroke="#ffffff" stroke-width="1"/>
<circle cx="1235.0" cy="654.8" r="3.5" fill="#c026d3" stroke="#ffffff" stroke-width="1"/>
<polyline points="90.0,637.4 185.4,637.9 280.8,648.6 376.2,645.4 471.7,639.4 567.1,631.2 662.5,612.1 757.9,604.2 853.3,605.6 948.8,634.0 1044.2,633.4 1139.6,637.2 1235.0,638.4" fill="none" stroke="#2563eb" stroke-width="2.5"/>
<circle cx="90.0" cy="637.4" r="3.5" fill="#2563eb" stroke="#ffffff" stroke-width="1"/>
<circle cx="185.4" cy="637.9" r="3.5" fill="#2563eb" stroke="#ffffff" stroke-width="1"/>
<circle cx="280.8" cy="648.6" r="3.5" fill="#2563eb" stroke="#ffffff" stroke-width="1"/>
<circle cx="376.2" cy="645.4" r="3.5" fill="#2563eb" stroke="#ffffff" stroke-width="1"/>
<circle cx="471.7" cy="639.4" r="3.5" fill="#2563eb" stroke="#ffffff" stroke-width="1"/>
<circle cx="567.1" cy="631.2" r="3.5" fill="#2563eb" stroke="#ffffff" stroke-width="1"/>
<circle cx="662.5" cy="612.1" r="3.5" fill="#2563eb" stroke="#ffffff" stroke-width="1"/>
<circle cx="757.9" cy="604.2" r="3.5" fill="#2563eb" stroke="#ffffff" stroke-width="1"/>
<circle cx="853.3" cy="605.6" r="3.5" fill="#2563eb" stroke="#ffffff" stroke-width="1"/>
<circle cx="948.8" cy="634.0" r="3.5" fill="#2563eb" stroke="#ffffff" stroke-width="1"/>
<circle cx="1044.2" cy="633.4" r="3.5" fill="#2563eb" stroke="#ffffff" stroke-width="1"/>
<circle cx="1139.6" cy="637.2" r="3.5" fill="#2563eb" stroke="#ffffff" stroke-width="1"/>
<circle cx="1235.0" cy="638.4" r="3.5" fill="#2563eb" stroke="#ffffff" stroke-width="1"/>
<polyline points="90.0,642.9 185.4,644.0 280.8,651.2 376.2,660.2 471.7,657.5 567.1,648.6 662.5,621.1 757.9,611.2 853.3,609.6 948.8,638.0 1044.2,639.8 1139.6,643.3 1235.0,643.9" fill="none" stroke="#0891b2" stroke-width="2.5" stroke-dasharray="7 4"/>
<circle cx="90.0" cy="642.9" r="3.5" fill="#0891b2" stroke="#ffffff" stroke-width="1"/>
<circle cx="185.4" cy="644.0" r="3.5" fill="#0891b2" stroke="#ffffff" stroke-width="1"/>
<circle cx="280.8" cy="651.2" r="3.5" fill="#0891b2" stroke="#ffffff" stroke-width="1"/>
<circle cx="376.2" cy="660.2" r="3.5" fill="#0891b2" stroke="#ffffff" stroke-width="1"/>
<circle cx="471.7" cy="657.5" r="3.5" fill="#0891b2" stroke="#ffffff" stroke-width="1"/>
<circle cx="567.1" cy="648.6" r="3.5" fill="#0891b2" stroke="#ffffff" stroke-width="1"/>
<circle cx="662.5" cy="621.1" r="3.5" fill="#0891b2" stroke="#ffffff" stroke-width="1"/>
<circle cx="757.9" cy="611.2" r="3.5" fill="#0891b2" stroke="#ffffff" stroke-width="1"/>
<circle cx="853.3" cy="609.6" r="3.5" fill="#0891b2" stroke="#ffffff" stroke-width="1"/>
<circle cx="948.8" cy="638.0" r="3.5" fill="#0891b2" stroke="#ffffff" stroke-width="1"/>
<circle cx="1044.2" cy="639.8" r="3.5" fill="#0891b2" stroke="#ffffff" stroke-width="1"/>
<circle cx="1139.6" cy="643.3" r="3.5" fill="#0891b2" stroke="#ffffff" stroke-width="1"/>
<circle cx="1235.0" cy="643.9" r="3.5" fill="#0891b2" stroke="#ffffff" stroke-width="1"/>
<line x1="90" y1="688.5" x2="1235" y2="688.5" stroke="#7b8794" stroke-width="1.5" stroke-dasharray="3 4"/>
<line x1="90.0" y1="726" x2="120.0" y2="726" stroke="#6d28d9" stroke-width="3"/>
<text x="128.0" y="731.0" font-size="13" fill="#303841">PL / SAD fastest</text>
<line x1="376.2" y1="726" x2="406.2" y2="726" stroke="#c026d3" stroke-width="3" stroke-dasharray="7 4"/>
<text x="414.2" y="731.0" font-size="13" fill="#303841">PL / SAD average</text>
<line x1="662.5" y1="726" x2="692.5" y2="726" stroke="#2563eb" stroke-width="3"/>
<text x="700.5" y="731.0" font-size="13" fill="#303841">cuQ / SAD fastest</text>
<line x1="948.8" y1="726" x2="978.8" y2="726" stroke="#0891b2" stroke-width="3" stroke-dasharray="7 4"/>
<text x="986.8" y="731.0" font-size="13" fill="#303841">cuQ / SAD average</text>
<text x="662.5" y="752.0" text-anchor="middle" font-size="14" fill="#20262d">Qubits</text>
</svg>
